<svg xmlns="http://www.w3.org/2000/svg" viewBox="0 0 248 354.13"><title>efl cup logo</title><path d="M512,689.07c-68.37,0-124-56.44-124-125.81,0-.84,0-178.12,0-208.89V334.93H636v19.43c0,30.56,0,207.74,0,208.89,0,69.37-55.63,125.81-124,125.81" transform="translate(-388 -334.93)" style="fill:#fff"/><path d="M628.94,354.37V342H395v12.42c0,31,0,208.06,0,208.89C395,628.76,447.49,682,512,682s117-53.29,117-118.79c0-1.16,0-178.57,0-208.89" transform="translate(-388 -334.93)" style="fill:#008f5e"/><path d="M508.91,491l-.18-1.9c0-.23-.61-4.73-5.09-5.42l-.92-.14-.19-.91a39.71,39.71,0,0,1-.67-6.07c0-1.52,0-3.07.09-4.32.05-1,.09-1.94.06-2.45,0-.35-.11-1.17-.17-1.84,0-.35-.06-.66-.07-.8a3.49,3.49,0,0,0-.63-1.73l-.05-.07,0-.06A3.16,3.16,0,0,0,499.3,464l-1-.18-.11-1c0-.13-.34-3.21-.48-6.11-.26-.56-.78-.78-1.52-1a2.74,2.74,0,0,1-1.31-.77l0,0c-.51-.62-1.88-2.27-1.87-9v-.17l-.19-.21h0a5.83,5.83,0,0,1-.51-.79,3.8,3.8,0,0,0-.57-.82l-.31-.19-.17-.33a8.72,8.72,0,0,1-.49-2c-.16-.84-.35-1.88-.6-2.87v0a16.28,16.28,0,0,0-.66-2.1l-.61-1.55,1.63-.25a5.4,5.4,0,0,0,1.72-.67,2.28,2.28,0,0,0,1.23-2.29c-.1-1.22-.17-2-.22-2.57a39.32,39.32,0,0,1-10.29-1.64h0c-3-1-7.41-1.49-13.36-1.49l-2.56,0h-.9c-2.35.12-4.67.19-6.92.19a99.78,99.78,0,0,1-19.56-1.79,74.54,74.54,0,0,1-10.39-2.89l-.74-.26a48,48,0,0,1-13.86-7.51c-3.35-2.6-7.72-6.73-9.54-11.69a22,22,0,0,1-1.86-10.78,18.68,18.68,0,0,1,12.15-15.92,20.72,20.72,0,0,1,7.12-1.2,26.3,26.3,0,0,1,9.43,1.77l3.55,1.52-3.73,1c-13.13,3.49-14.84,8.63-15.71,11.46-.73,5,1.42,9.16,6.55,12.58l.06,0c6.2,4.6,16.64,6.78,24.35,7.3h0c1.44.13,3.22.2,5.28.2a136.41,136.41,0,0,0,19.53-1.42c2.63-.54,8.27-1,12.39-1.31,1.72-.14,3.2-.25,4-.34a13.66,13.66,0,0,1,1.48-.08c.71,0,3.63.08,5.2,1.27a22,22,0,0,1,9.15-2.28c.45,0,.9,0,1.34.06h.08a20.48,20.48,0,0,1,7.37,3l0,0,0,0a3,3,0,0,0,.69-.54c1-.9,2.32-2.13,6.44-2.45l.8,0a11.82,11.82,0,0,1,8.16,3.62,6.19,6.19,0,0,0,1-.73,7.24,7.24,0,0,1,5.4-2c.83,0,1.68.07,2.57.15h0l2,.18c3.91.34,11.18,1,14.25,1.55a112.49,112.49,0,0,0,16.18,1.09,66.29,66.29,0,0,0,6.87-.3h0c4.87-.42,17-2,24.2-7.57l.06,0c5.09-3.51,7.16-7.67,6.33-12.7-.92-2.81-2.73-7.93-15.9-11.18l-3.76-.93,3.53-1.58a26.25,26.25,0,0,1,9.8-1.94,20.57,20.57,0,0,1,7,1.16,18.84,18.84,0,0,1,10.65,9.83,19,19,0,0,1,1.55,5.8,22.16,22.16,0,0,1-1.66,10.82c-1.75,5-5.91,9.19-9.1,11.82a45.87,45.87,0,0,1-13.52,7.77l-.44.16a72.62,72.62,0,0,1-10.7,3.09,101.22,101.22,0,0,1-20.51,1.92h0c-1.47,0-3,0-4.51-.07-1.68,0-10,.19-15.94,2.28a23.58,23.58,0,0,1-7.66,1.09c-1.38,0-2.62-.08-3.55-.16a3.89,3.89,0,0,1-.17,1l-.2.66a1.82,1.82,0,0,1,.51.38h0c.83.73,1.88,2.1,1.47,5.65a22.07,22.07,0,0,1-1.06,5.1,5.58,5.58,0,0,0-.4,1.94l.15,2.18-1.62-.7a3.65,3.65,0,0,1,.29,1.44,15.93,15.93,0,0,1-1.11,6.4h0a7,7,0,0,1-2.23,2.41c0,.23,0,.49.06.76.09,1.49-.06,2.29-.51,2.82a3.66,3.66,0,0,1-1.49,1.11c0,.2,0,.41,0,.63-.15,1.66-.34,2.18-.66,2.55a14.12,14.12,0,0,1-2.51,1.94c-.09,1.23-.42,5.87-.49,7.91-.09,2.36-.31,8.46-.31,8.52l0,.83-.76.34a10.27,10.27,0,0,0-2.64,1.57,10.86,10.86,0,0,0,0,3l.14,1.43-1.44,0s-4.51.11-7.39,1.52ZM505,481.27a8.2,8.2,0,0,1,5.22,4.1,10.05,10.05,0,0,1,.77,1.8,24.66,24.66,0,0,1,5.61-1.09c0-.07,0-.16,0-.23a6,6,0,0,1,.4-2.8v0a5.48,5.48,0,0,1,2.35-2c.29-.17.57-.31.82-.43.06-1.75.21-5.88.28-7.73.09-2.37.49-8,.52-8.3a2.18,2.18,0,0,1,.92-1.56l0,0a23.68,23.68,0,0,0,2-1.47,21,21,0,0,0,.24-2.63l0-1.22,1.16-.06a1.43,1.43,0,0,0,.74-.34,12.09,12.09,0,0,0-.14-2.5l-.13-.93.83-.43a5.2,5.2,0,0,0,1.9-1.76,12.15,12.15,0,0,0,.82-4.18,2.22,2.22,0,0,1-1.58.78c-.4,0-1.7-.17-1.81-2.27a6.14,6.14,0,0,1,2.47-5l.88-.63.79.73a4.79,4.79,0,0,0,.71.5c.07-.26.16-.52.24-.8a19.48,19.48,0,0,0,1-4.56v0c.3-2.59-.37-3.17-.58-3.36l-.07-.06a3.28,3.28,0,0,0-1.09-.18,2.17,2.17,0,0,0-.88.16,2.51,2.51,0,0,1-1.6.68,1.74,1.74,0,0,1-1.51-.87,3.15,3.15,0,0,1,0-2.85v0c.4-.74,1.3-1.14,3.18-1.42l.86-.11a2.18,2.18,0,0,0-.1-.33l-1.08-2.28,2.49.39a36.06,36.06,0,0,0,4.94.34,21,21,0,0,0,6.79-.94c6.22-2.18,14.45-2.41,16.82-2.43h.05c1.5.05,3,.08,4.45.08,16.94,0,26.3-3.41,30.3-4.86l.46-.17h0a43,43,0,0,0,12.7-7.31c4.15-3.43,7.1-7.23,8.3-10.69l0,0,0,0c2.22-5.16,2.75-13.26-3-19.1a16.24,16.24,0,0,0-12-4.84,23.42,23.42,0,0,0-4.56.46,26,26,0,0,1,9.22,5,14.52,14.52,0,0,1,4.23,6.75l0,.09v.1a13.92,13.92,0,0,1-.73,7.65,17.78,17.78,0,0,1-6.67,7.75c-7.79,6-20.45,7.66-25.56,8.1a68.78,68.78,0,0,1-7.13.32A115.78,115.78,0,0,1,553.73,411c-2.93-.55-10.12-1.18-14-1.51l-2-.18c-.84-.07-1.63-.14-2.34-.14a4.54,4.54,0,0,0-3.56,1.29l0,0a4.9,4.9,0,0,1-3,1.55,1.72,1.72,0,0,1-1.3-.54l0,0a9.44,9.44,0,0,0-6.58-3.18l-.59,0c-3.2.25-4.07,1.05-4.85,1.76a5.54,5.54,0,0,1-1.27.95,2.62,2.62,0,0,1-1.35.46,2.4,2.4,0,0,1-1.41-.55,18.05,18.05,0,0,0-6.27-2.54c-.34,0-.7,0-1.06,0a20,20,0,0,0-8.83,2.45l-1.53.9-.4-1.61a6.9,6.9,0,0,0-3.59-.74,11.58,11.58,0,0,0-1.19.06c-.83.09-2.33.21-4.07.35-4,.32-9.6.76-12.06,1.27a137.1,137.1,0,0,1-20.07,1.48c-2.14,0-4-.07-5.51-.21a70.68,70.68,0,0,1-12.69-2.05,38.1,38.1,0,0,1-13-5.75,17.72,17.72,0,0,1-6.8-7.64,13.93,13.93,0,0,1-.87-7.63v-.1l0-.09a14.48,14.48,0,0,1,4.1-6.83,25.93,25.93,0,0,1,9.13-5.17,23.43,23.43,0,0,0-4.21-.4,16.3,16.3,0,0,0-12.29,5.05c-5.68,6-5,14-2.67,19.14l0,0,0,0c1.25,3.42,4.33,7.16,8.69,10.54a45.31,45.31,0,0,0,13.07,7.08h0l.77.26c4.23,1.47,13,4.53,29.07,4.53,2.21,0,4.5-.06,6.81-.18h1l2.6,0c6.24,0,10.88.53,14.2,1.63a37.41,37.41,0,0,0,10.45,1.52h.83l.4.53a2,2,0,0,1,.34,1.16c.08.66.18,1.77.3,3.32a5,5,0,0,1-2.56,4.81,7.68,7.68,0,0,1-1.11.55c.11.36.22.75.3,1.14.27,1.07.47,2.15.62,3,.07.4.16.86.22,1.15a5.91,5.91,0,0,1,1,1.38c.1.16.21.36.28.44a6.22,6.22,0,0,0,.89.76l2.13,1.49-2.21.77c.05,2.38.31,5.08,1.17,6.27l.27.1a4.68,4.68,0,0,1,3.2,2.83l.06.19v.2c.08,2,.28,4.14.39,5.31a6.59,6.59,0,0,1,3.64,5.1v.07c0,.13,0,.46.08.86.06.67.13,1.5.17,1.82v0a25,25,0,0,1,0,2.79c-.06,1.27-.13,2.7-.09,4.12a36.87,36.87,0,0,0,.47,4.75" transform="translate(-388 -334.93)" style="fill:#fceb20"/><path d="M507.16,494.16l-.46-4.81a5.37,5.37,0,0,0-.64-1.78,3.64,3.64,0,0,0-2.73-1.85l-2.32-.36-.47-2.3a40.92,40.92,0,0,1-.72-6.42c0-1.6,0-3.19.1-4.47,0-.88.08-1.78.06-2.18s-.11-1.17-.17-1.82v-.06c0-.28-.05-.53-.06-.68a2.15,2.15,0,0,0-.19-.69l-.14-.17-.09-.14a1.74,1.74,0,0,0-.44-.4l-2.45-.43-.27-2.52c0-.3-.3-2.77-.44-5.37l-.22-.08a4.63,4.63,0,0,1-2.2-1.4h0a7.73,7.73,0,0,1-1.51-2.92,25.43,25.43,0,0,1-.83-6.85c-.17-.25-.31-.49-.44-.72l-.18-.29-.5-.32-.42-.83a9.51,9.51,0,0,1-.68-2.59c-.15-.81-.33-1.81-.57-2.75l0-.11a13.41,13.41,0,0,0-.56-1.78L486,433.11l4.12-.63a3.39,3.39,0,0,0,1-.39.82.82,0,0,0,.28-.23.57.57,0,0,0,0-.16c0-.27,0-.53-.06-.78a39.09,39.09,0,0,1-9-1.65h0c-2.83-.94-7-1.39-12.72-1.39l-2.53,0h-.87c-2.37.12-4.72.18-7,.18a101.83,101.83,0,0,1-20-1.83,76.69,76.69,0,0,1-10.66-3h0l-.69-.24a50.12,50.12,0,0,1-14.47-7.83c-3.54-2.75-8.18-7.15-10.18-12.53a24,24,0,0,1-2-11.74,20.72,20.72,0,0,1,13.49-17.67,22.84,22.84,0,0,1,7.82-1.32,28,28,0,0,1,10.23,1.94l11.32,4.32-11.77,2c-11.92,3.17-13.48,7.5-14.23,9.93-.55,4.17,1.26,7.49,5.68,10.44l.14.1c5.84,4.33,15.85,6.41,23.26,6.91h.08c1.38.12,3.1.19,5.1.19a136.92,136.92,0,0,0,19.11-1.38c2.75-.57,8.47-1,12.65-1.35h0c1.7-.13,3.16-.25,3.93-.34a16.24,16.24,0,0,1,1.71-.09,13.31,13.31,0,0,1,5.31,1,23.45,23.45,0,0,1,9-2c.51,0,1,0,1.53.07l.2,0a21.4,21.4,0,0,1,6.89,2.49,8.94,8.94,0,0,1,2.12-1.39,14.51,14.51,0,0,1,5.11-1.2c.32,0,.64,0,1,0a13.41,13.41,0,0,1,8.23,3,9.36,9.36,0,0,1,6.3-2.13c.92,0,1.81.08,2.75.16h0l2,.18c3.94.34,11.28,1,14.45,1.58a109.54,109.54,0,0,0,15.8,1.06,63.51,63.51,0,0,0,6.65-.29h.07c4.68-.4,16.32-1.9,23.12-7.16l.15-.1c4.38-3,6.13-6.38,5.5-10.53-.8-2.41-2.44-6.72-14.4-9.67L582,377.33l9-4a28,28,0,0,1,10.64-2.12,22.53,22.53,0,0,1,7.65,1.29A20.87,20.87,0,0,1,621,383.4a20.78,20.78,0,0,1,1.73,6.42A24.17,24.17,0,0,1,621,401.6c-1.92,5.42-6.33,9.87-9.71,12.66a48,48,0,0,1-14.13,8.12l-.41.15h0a74.42,74.42,0,0,1-11,3.17,103.23,103.23,0,0,1-20.93,2c-1.48,0-3,0-4.54-.07s-9.62.2-15.24,2.16a25.69,25.69,0,0,1-8.34,1.2H536a9.55,9.55,0,0,1,.8,5.71,24.42,24.42,0,0,1-1.14,5.51,5.78,5.78,0,0,0-.31,1.19l.38,5.53-1.6-.69a15.41,15.41,0,0,1-1.28,5.55v0a8.43,8.43,0,0,1-1.93,2.41,63.39,63.39,0,0,0-3.22,8.28,11.11,11.11,0,0,1-2.09,1.73c-.13,1.88-.36,5.22-.42,6.85-.08,2.08-.26,7-.31,8.47l-.08,2.16-1.93.85a14,14,0,0,0-1.54.81,13.89,13.89,0,0,0,.06,1.67l.35,3.63-3.65.07a19,19,0,0,0-6.53,1.31Zm-.32-14.43a10.25,10.25,0,0,1,5.16,4.65l.17.32c.84-.2,1.67-.35,2.43-.46a6.08,6.08,0,0,1,.54-2.09l0,0a6.92,6.92,0,0,1,3-2.75c.07-1.89.18-5,.24-6.56.09-2.36.48-7.74.52-8.36a4.25,4.25,0,0,1,1.76-3.07l.13-.08c.5-.33.93-.64,1.25-.87,0-.42.09-1,.11-1.61l.12-3.09,1.78-.09c0-.18,0-.37-.07-.57l-.34-2.36,2.11-1.11a3.42,3.42,0,0,0,1-.89,3,3,0,0,0,.19-.53c-1.5-.36-2.85-1.66-3-4.1a8.16,8.16,0,0,1,3.32-6.77l2.23-1.59.23.21c.1-.54.2-1.16.27-1.89v-.08a7.43,7.43,0,0,0,.06-1.16,4.24,4.24,0,0,1-2.25.67,3.79,3.79,0,0,1-3.27-1.86,5.2,5.2,0,0,1,0-4.86l0,0a4.55,4.55,0,0,1,2.9-2.08l-1.76-3.69,6.32,1a34.81,34.81,0,0,0,4.62.31,19.06,19.06,0,0,0,6.11-.82c6.52-2.28,15-2.52,17.48-2.54h.14c1.48,0,3,.07,4.39.07,16.58,0,25.7-3.32,29.6-4.74h0l.45-.16,0,0a41,41,0,0,0,12.07-7c3.87-3.19,6.59-6.67,7.67-9.78l0-.11.05-.11c2-4.57,2.47-11.73-2.59-16.85a13.81,13.81,0,0,0-6.17-3.66,19.9,19.9,0,0,1,1.65,1.34,16.68,16.68,0,0,1,4.8,7.63l.08.24,0,.24a15.89,15.89,0,0,1-.86,8.76,19.74,19.74,0,0,1-7.36,8.64c-3.59,2.75-8.46,4.93-14.49,6.46a76.34,76.34,0,0,1-12.08,2,70.31,70.31,0,0,1-7.33.33A118.17,118.17,0,0,1,553.36,413c-2.83-.53-10-1.15-13.78-1.49l-2-.18c-.79-.07-1.53-.13-2.16-.13a2.54,2.54,0,0,0-2.13.7l-.13.12a7,7,0,0,1-4.35,2.07,3.77,3.77,0,0,1-2.84-1.24l-.06-.08a7.44,7.44,0,0,0-5-2.45l-.43,0c-2.5.19-3,.67-3.62,1.23a7.47,7.47,0,0,1-1.67,1.24,4.6,4.6,0,0,1-2.34.71,4.35,4.35,0,0,1-2.56-.9,16.23,16.23,0,0,0-5.37-2.2c-.26,0-.54,0-.81,0a18.09,18.09,0,0,0-7.8,2.18l-3.89,2.27-.81-3.25a8.31,8.31,0,0,0-1.85-.19,9.09,9.09,0,0,0-1,.05c-.86.09-2.38.22-4.13.36-4,.31-9.48.75-11.81,1.23a139.43,139.43,0,0,1-20.48,1.52c-2.19,0-4.09-.07-5.67-.21a72.72,72.72,0,0,1-13-2.12,40.15,40.15,0,0,1-13.68-6,19.68,19.68,0,0,1-7.51-8.52,15.94,15.94,0,0,1-1-8.73l0-.25.07-.24a16.59,16.59,0,0,1,4.66-7.72,20.52,20.52,0,0,1,1.64-1.37,13.74,13.74,0,0,0-6.12,3.77c-5,5.23-4.35,12.36-2.29,16.88l.05.12,0,.12c1.12,3.06,4,6.48,8,9.63A43.1,43.1,0,0,0,430,416.63h0l.78.27c4.13,1.44,12.72,4.42,28.4,4.42,2.17,0,4.43-.06,6.71-.18h1l2.63,0c6.46,0,11.32.57,14.83,1.73a35.18,35.18,0,0,0,9.82,1.42h.13l1.7,0,1,1.35a3.92,3.92,0,0,1,.75,2.18c.08.68.18,1.82.31,3.38a7,7,0,0,1-3.32,6.59c.23,1,.41,1.93.55,2.71l.11.56a9.41,9.41,0,0,1,.88,1.31l.11.18a5.77,5.77,0,0,0,.47.37l5.39,3.78-4.54,1.58a12.53,12.53,0,0,0,.51,3.2,6.4,6.4,0,0,1,3.94,3.9l.16.47,0,.5c.06,1.43.18,3,.28,4.13a8.5,8.5,0,0,1,2.19,2.15,8.27,8.27,0,0,1,1.54,3.9l0,.19c0,.12,0,.46.08.87.06.63.13,1.49.16,1.8v.08a27.51,27.51,0,0,1,0,3c-.06,1.22-.12,2.62-.09,4,0,1.19.15,2.35.27,3.26m22-36.26a3.59,3.59,0,0,0-.78,2.37h0v0l1.28-1.31Zm-.71-12.76a1.45,1.45,0,0,0-.09.51l.09-.07.22-.18.27-.12a4.18,4.18,0,0,1,1.7-.33h.22l.11-.35h0l-.79.1a5.26,5.26,0,0,0-1.71.43" transform="translate(-388 -334.93)" style="fill:#fceb20"/><path d="M451.17,436.46a60.93,60.93,0,1,1,61,60.79,60.91,60.91,0,0,1-61-60.79" transform="translate(-388 -334.93)" style="fill:#e2231a"/><path d="M512.08,499.77A63.43,63.43,0,0,1,512,372.9h.13a63.43,63.43,0,0,1,.12,126.87Zm0-121.83H512a58.4,58.4,0,0,0,.1,116.79h.13a58.4,58.4,0,0,0-.11-116.79" transform="translate(-388 -334.93)" style="fill:#fceb20"/><path d="M451.17,436.46a60.93,60.93,0,1,1,61,60.79,60.91,60.91,0,0,1-61-60.79" transform="translate(-388 -334.93)" style="fill:#e2231a"/><polygon points="166.99 61.46 207.2 58.09 164.88 58.78 166.99 61.46" style="fill:#100c08"/><path d="M508.3,380.41A59,59,0,0,1,555,475.67a58.46,58.46,0,0,0-79.92-85,58.8,58.8,0,0,1,33.25-10.25" transform="translate(-388 -334.93)" style="fill:#fff"/><polygon points="165.91 58.61 192.59 26.61 164.25 56.81 165.91 58.61" style="fill:#100c08"/><path d="M549.87,389.87c-3-2.75-31.4-25.47-31.4-25.47s27.7,24.58,30.33,27.36Z" transform="translate(-388 -334.93)" style="fill:#100c08"/><polygon points="161.95 11.9 162.34 55.59 165.88 56.95 161.95 11.9" style="fill:#100c08"/><polygon points="162.05 16.95 161.5 55.35 132.06 30.83 158.24 57.72 118.14 58.92 158.24 60.84 138.79 83.17 160.4 62.52 162.56 103.09 163.53 62.76 183.94 81.25 165.93 60.6 205.76 58.09 165.69 57.72 188.2 31.27 164.37 55.67 162.05 16.95" style="fill:#fff"/><path d="M490.65,428.14a35.78,35.78,0,0,1,.37,3.75c.29,3.68-4.05,4.38-4.05,4.38a17,17,0,0,1,.72,2.33c.51,2.05.77,4.21,1,4.63.63.4,1,1.43,1.4,1.89a7.26,7.26,0,0,0,1.17,1l-.67.22c0,6.38,1.22,7.74,1.59,8.21s2.46.47,3.13,2.38c.12,2.94.48,6.24.48,6.24a4.58,4.58,0,0,1,2.64,1.9,4.84,4.84,0,0,1,.93,2.39c0,.34.18,2.17.23,2.69.12,1.26-.2,4.09-.12,6.85a38.21,38.21,0,0,0,.64,5.84c5.6.88,6.19,6.57,6.19,6.57a23,23,0,0,1,8-1.64s-.27-2.77.19-3.69,3.26-2.18,3.26-2.18.22-6.14.32-8.53.53-8.25.53-8.25a.78.78,0,0,1,.36-.57,18,18,0,0,0,2.43-1.84c.35-.35.45-3.33.45-3.33a2.67,2.67,0,0,0,1.74-.95c.46-.49,0-3.42,0-3.42A6.46,6.46,0,0,0,526,452.7a14.24,14.24,0,0,0,1-5.76c0-1.63-1-1.53-1.4-1.42-.13.72-1.86,3.22-2,.84a4.84,4.84,0,0,1,1.91-3.84,12.46,12.46,0,0,0,2.66,1.55c-.11-1.76,1.08-3,1.46-7.26.43-3.75-1-4.41-1.15-4.65a4,4,0,0,0-3.54-.08c-1.46,1.33-1.56-.54-1.17-1.28s4.13-1,4.13-1a3.29,3.29,0,0,0-.15-2.13s7.23,1.12,12.38-.66c5.55-1.94,13.11-2.33,16.37-2.35" transform="translate(-388 -334.93)" style="fill:#100c08"/><path d="M512.76,408.78a10.41,10.41,0,0,1,7.54-3.16,12.67,12.67,0,0,1,8.62,3.63s3-2.51,4.26-2.48,1-.6,10.37.39c4.38.48,9.51.91,14.08,1.77.81.16,14.69.86,17.09.44,1.69-.3,10.76-1.26,12.83-1.77,13.09-3.26,17.49-9.17,17.49-9.17a10,10,0,0,0,2.6-10.17c-2.29-8.67-19.27-11.47-19.27-11.47s19.79-11.26,30.21,6.6a19.36,19.36,0,0,1,1.82,5.37c.66,2.76.35,7.18-1.18,11.77-3.2,9.73-13.45,15.11-16.41,16.79C591.08,424,574.92,425,574,425.18c-2,.39-15.73.26-16.53.29a59.19,59.19,0,0,0-9.46,1.24c-2.76.62-4.85,1.38-6.09,1.68a34.3,34.3,0,0,1-8.94.26,6.27,6.27,0,0,1-.42,1.76c2.94,1.74,2,6.45,2,6.45a25.43,25.43,0,0,1-1.28,5.56,9.07,9.07,0,0,0,0,3.09,17.5,17.5,0,0,0-1.7-.71c.83,1.43,0,5.73-.08,5.88a6.3,6.3,0,0,1-2.91,4.49,9.48,9.48,0,0,1-.11,3,3.38,3.38,0,0,1-1.82,1.67,7,7,0,0,1-.56,3,15.91,15.91,0,0,1-2.66,2.13s-.86,17-.84,17.27c-.08.08-3,1.27-3.42,2-.26,1.55.28,4.25.14,4.25a20.87,20.87,0,0,0-10.43,2.32c-.09-7.4-5.91-7.27-6.21-7.38-.84-3.08-.72-8-.83-8.27s.92-8.24-1.06-10.32a3.36,3.36,0,0,0-2.45-1.11c-.37-1-.51-6-.69-7.26-.38-.77-2.89-1.11-3-2C494,454.1,493,452,493,445.67c-.54-.6-1-1.54-1.23-1.79s-.29-.19-.35-.27c-.59-.62-1.1-5.94-2.52-8.75-.11-.19.1-.06.44-.11,4.6-.66,4.06-3.14,4.06-3.14s-.15-2.73-.18-2.74-5-.46-5.77-.53c-1.61-.18-4.94-1.31-7.72-1.92-4.26-1-12.68-.7-12.68-.7s-8.74.46-13.4.13A100.66,100.66,0,0,1,438.81,424c-6-.84-14.68-4.82-15.36-5-3.21-1.09-10.72-6.83-12.13-8.14a25.51,25.51,0,0,1-6.49-9.49,23.3,23.3,0,0,1-1.62-11,18.74,18.74,0,0,1,12.09-15.06c10-3.55,19.39,1.89,19.72,2-.3.45-17.41,2.9-19.11,13-.08.81-1.43,6.57,6.22,11.94,1.16.81,9,6.3,24.09,7.55,2.6.52,20.13,0,23.26-.92,1-.3,19.86-2.16,21.62-2,1.46.11,3.41.85,3.68,1.34,4.4-2.21,6.89-2.35,8.41-2.39a16,16,0,0,1,9.56,3.07" transform="translate(-388 -334.93)" style="fill:#fff"/><path d="M614.54,379.83c-9.14-9.27-22.23-3.42-22.23-3.42,13.41,3.31,15.71,8.56,16.89,12.15.73,4.28-.2,9.49-6.88,14.11-6.86,5.3-18.13,7.27-24.9,7.85a111.92,111.92,0,0,1-23.44-.8c-3.64-.69-13.39-1.46-16.13-1.71s-5-.43-7,1.52c-1.92,1.7-2.42,1.13-2.42,1.13s-3.28-4-8.31-3.64-5.25,2.19-6.65,2.86c-.68.41-.8.39-1.38,0a19.26,19.26,0,0,0-6.86-2.77c-5.45-.5-10.72,2.58-10.72,2.58-.3-1.19-3.45-1.85-6.18-1.55s-12.63.89-16.26,1.63-17.74,1.92-25.2,1.25c-6.78-.45-18.08-2.39-25.05-7.56-6.76-4.5-7.76-9.69-7.12-14,1.11-3.63,3.32-8.9,16.66-12.45,0,0-13.18-5.62-22.16,3.8-5.94,6.24-5.58,14.74-2.92,20.61,2.9,8,13.9,15.6,22.59,18.44,4.19,1.43,15.32,5.8,37.15,4.69,3.27,0,11.7-.32,17.29,1.53a39,39,0,0,0,11.05,1.59,34.3,34.3,0,0,1,.37,3.78c.29,3.67-4.06,4.38-4.06,4.38a17.31,17.31,0,0,1,.72,2.31c.51,2.07.78,4.23,1,4.64.64.4,1,1.43,1.4,1.89a7.4,7.4,0,0,0,1.16,1l-.66.23c0,6.38,1.22,7.74,1.59,8.2s2.46.48,3.13,2.38c.13,3,.48,6.25.48,6.25a4.54,4.54,0,0,1,2.64,1.89,4.81,4.81,0,0,1,.92,2.41c0,.32.19,2.16.24,2.69.1,1.26-.21,4.07-.14,6.85a38.46,38.46,0,0,0,.65,5.83c5.6.87,6.21,6.59,6.21,6.59,3.19-1.57,7.95-1.65,7.95-1.65s-.27-2.77.19-3.71,3.28-2.18,3.28-2.18.22-6.14.31-8.53.51-8.26.51-8.26a.85.85,0,0,1,.38-.58,17.07,17.07,0,0,0,2.43-1.83c.33-.35.44-3.33.44-3.33a2.66,2.66,0,0,0,1.74-.94c.48-.5.06-3.42.06-3.42a6.53,6.53,0,0,0,2.47-2.34,14.63,14.63,0,0,0,1-5.77c0-1.62-1-1.53-1.42-1.42-.12.73-1.86,3.23-2,.84a4.82,4.82,0,0,1,1.91-3.85A12.23,12.23,0,0,0,532,443.6c-.12-1.77,1.07-3,1.46-7.27.43-3.74-1-4.4-1.14-4.62a4,4,0,0,0-3.54-.09c-1.48,1.34-1.57-.55-1.17-1.29s4.12-.95,4.12-.95a3.23,3.23,0,0,0-.15-2.13s7.23,1.13,12.37-.66c5.56-1.95,13.12-2.33,16.39-2.35,20.76.69,31.43-3.48,35.7-5,8.64-3,19-10.82,21.82-18.82,2.54-5.92,2.77-14.42-3.29-20.55" transform="translate(-388 -334.93)" style="fill:#100c08"/><path d="M547.47,420.3c-.73-.83-2.49-2.27-3.64-2.37l.46-4.2a29,29,0,0,0-6.66-2.51c-3.69-1.07-3.69-.76-4.45-.39a13.23,13.23,0,0,1-4,2s-3.24-3.82-7.69-4.16A8.92,8.92,0,0,0,515.9,410a26.57,26.57,0,0,0-2.11,1.64s-.56.68-2.27,0-3.81-3.71-9.92-2.86a30.07,30.07,0,0,0-7.2,2.89s-.46-2.07-3.53-2.06a71.44,71.44,0,0,0-7.26.29c-.71.17-2,.85-2.27.9s1,2.68-.19,4.3c-.61.94-.25,1.55-1.45,1.51,0,0-2.64,0-2.84,2,0,2.13,3.34,3.26,4.87-.94,0,0,1.57,4,3.33,4.49,2.18.4,4.3-2.88,4.81-3.14,0,0-2.31,4.15-1.11,5.7,1.45.82,3.27,1,3.57.61a6.11,6.11,0,0,0,1-4s1.3,1,2,.08.91-5,.91-5,.88-.16.9,1.81.06,3.47.06,3.47-1.19-.15-1.35.63a2,2,0,0,0,.11,1.24l1.14-.11s.37.73-1.13,1.57c0,0,1.52,4.09.44,7.11-1.12,3.41-3.4,3.9-3.4,3.9s.74,3.72.74,4.55,1.31,1.92,1.62,2.69l.88,1.45a17.57,17.57,0,0,1-1.68-5.18c-.22-2.32,1.9-3.12,4.7-3.91a5.83,5.83,0,0,1,2,.25c.69.31,1.68.67,1.68.67s1.14,1,1.19,1.34a33.3,33.3,0,0,1,.39,3.77c-.1.73-1,1.09-1,1.09s.54,5.29.49,6.06a8,8,0,0,1-.09,1,1.81,1.81,0,0,1-.74-.36c-.26-.25-.31,0-.31,0a4.2,4.2,0,0,1-1.8,2.7,4.27,4.27,0,0,0-.78-1c-.37-.25-1-.77-2.61-3.71a1.61,1.61,0,0,0-1.51-.77,16.63,16.63,0,0,0,.8,5.12c.93,1.39,1.55.76,2.13,2a9.69,9.69,0,0,1,1.36,3c.52,2,1,4.76,1,4.76a12.9,12.9,0,0,1,3,3,8.26,8.26,0,0,1,.57,3.5s-.2,10.28,0,11.67a3,3,0,0,0,.39,1.13s3.24.16,5.53,5.9l4.64-1a4.4,4.4,0,0,1,.12-1.26,7,7,0,0,1,1.59-2.89,8.22,8.22,0,0,1,2-.85s.32,0,.36-.52c0,0,.33-11.44.3-11.91l.28-4.08a10.1,10.1,0,0,0,2.58-2.41c.78-.62.81-3.31.81-3.31l1.56.2s.78.1,0-4.77c0,0,1-.32,2.73-2.81l.24-2.85-4.23,3.9a28,28,0,0,1-2-2.48c-.05-.26-.47-1.14-.24-6.37l-.67-.84-.06-.41.57-.88s.82-3.84,1.33-4.45,2.38-1.05,4.82-.29c2.6,1,3.14,4.5,3.14,4.5s.64-.45.66-3.62a15.4,15.4,0,0,0-.1-2.82s-.06-1.18-1.66-1.12c-.88.2-1.27,1-2.58.42-1.14-.15-1.3.11-1.88-1.81-.21-2,2.11-3,3.67-3.43l.16-1.29s-2-2.13-2.15-3.32l.89-.05s-2-4.35.17-6.78c0,0-.54,5.58,2.46,5.21l.84,2.43a14.57,14.57,0,0,1,2.08,1.49,11.31,11.31,0,0,0,3.11-.16c.47-.74-.36-.94-1.2-1.4a1.9,1.9,0,0,1-.64-3.11,8.35,8.35,0,0,0,3.44,2.68c3.47-.07,3.2-1.05,3.2-1.05l.36-1.24a3.06,3.06,0,0,1,.41-2.08l2.09,3.31a4.16,4.16,0,0,1,1.08-.52l2.48-.42a2,2,0,0,0-.42-1.82" transform="translate(-388 -334.93)" style="fill:#fff"/><path d="M511.86,417.32s0-3.91.07-4.2a.72.72,0,0,1,.72-.59c.38,0,.67.75.67.75s-.34,2.15-.42,2.43a3.29,3.29,0,0,1-1,1.6" transform="translate(-388 -334.93)" style="fill:#100c08"/><path d="M512,440.37s-.58,7-.69,7.37,1,.2,1,.2,1.24-2.18,1.45-2.49.19-.52-.11-1.19-1.63-3.88-1.63-3.88" transform="translate(-388 -334.93)" style="fill:#100c08"/><path d="M512.62,449.39l.93,0s-.48,4.51-.48,5.86-.09,3.22-.09,3.22h-.73s-.84-3.22-.84-3.41,1.18-3,1.18-3Z" transform="translate(-388 -334.93)" style="fill:#100c08"/><path d="M511.54,461.72a4,4,0,0,1,1-.21.62.62,0,0,1,.31.2l0,4.67a4.77,4.77,0,0,0,.37,1.29c.22.26,1.15.61,1.36,1.18a8.75,8.75,0,0,1,.12,4.36c-.61,2.59-1.59,3.06-1.48,4.14s.73,3,.74,3.68c0,0-.36.46-1.35.21a1.35,1.35,0,0,0-1-.31,18.33,18.33,0,0,0,.19-4.4c-.17-1.24-1.56-.56-1.56-.56l0-6.85s-.26-.57.56-1a5.58,5.58,0,0,1,1.09-.47Z" transform="translate(-388 -334.93)" style="fill:#100c08"/><path d="M515.6,422.37a9.14,9.14,0,0,0,1.13-1.17,2.74,2.74,0,0,0-1.49-1.51,1.56,1.56,0,0,0-1.46-.08s-1.4,2.49-2.13,2.77a8.23,8.23,0,0,1-3.27-2.6L504.75,416l-.35-.2s.05,1.38.14,3.07c0,.87.19,1.94.25,2.81.11,1.56.14,2.81.19,2.89s1.85,1.94,1.85,1.94.2.23,0,.34-1.4,1.51-2.31,1.59a3.33,3.33,0,0,1-2.06-.2l.07.63a23.46,23.46,0,0,0,1.16,3.07c.32.4.43.07.7.39.55.3.52,1.6.52,1.6l4.4-.25,1.33-3.32s1.4-.15,1.64-.23a12.83,12.83,0,0,1,1.94-.13c.27,0,.65.86.93,1,.12.1.54-.14.87-.39a17.28,17.28,0,0,1,3.23-1.33c.33-.14,3.07-4.42,4.3-5.36,0,0-1.76.3-2.94.6a18.55,18.55,0,0,1-3.86.24c-.6-.06-1.43-.24-1.43-.24a15.86,15.86,0,0,1,.26-2.12" transform="translate(-388 -334.93)" style="fill:#e2231a"/><path d="M500.12,446.64a1.34,1.34,0,0,0,.92-1.82c-.68-1.45-2-1-2.28.06s.38,2,1.36,1.76" transform="translate(-388 -334.93)" style="fill:#fff"/><path d="M524.47,443.68s-1.25.26-.46,2.13a1,1,0,0,0,1.72-.78,1.24,1.24,0,0,0-1.25-1.35" transform="translate(-388 -334.93)" style="fill:#fff"/><path d="M439,411.06s10.44,3.89,36.55,0c0,0,.81,8.13-7.64,9.11-7.2.87-15.24-1.79-17-2.46-4.05-1.38-11-4.66-11.91-6.68" transform="translate(-388 -334.93)" style="fill:#fff"/><path d="M573,417.37c-1.79.62-9.89,3.12-17.07,2.12-8.42-1.14-7.44-9.25-7.44-9.25,26,4.38,36.55.7,36.55.7-.94,2-8,5.14-12,6.44" transform="translate(-388 -334.93)" style="fill:#fff"/><path d="M597.68,497.11l0-9.48,8.11-1.69,0,9.47ZM545.13,508l-7.56,1.52.09-9.6,7.49-1.53ZM443.19,528.8l-24.25,5-.06-18.89,24.41-5.1Zm173.87-56.26-79.49,16.25v-10l-11.18,2.29v10l-83.16,17.16,0-10-35.81,7.44v41.75l77.37-15.92,0-20.78,11.18-2.3,0,20.75,121-24.94Z" transform="translate(-388 -334.93)" style="fill:#100c08"/><path d="M597.68,497.11l0-9.48,8.11-1.69,0,9.47ZM545.13,508l-7.56,1.52.09-9.6,7.49-1.53ZM443.19,528.8l-24.25,5-.06-18.89,24.41-5.1Zm173.87-56.26-79.49,16.25v-10l-11.18,2.29v10l-83.16,17.16,0-10-35.81,7.44v41.75l77.37-15.92,0-20.78,11.18-2.3,0,20.75,121-24.94Z" transform="translate(-388 -334.93)" style="fill:none;stroke:#100c08;stroke-miterlimit:10;stroke-width:0.13069649040699005px"/><path d="M516.81,512.67c0,1,0,1.79,0,2.74l-11.45,2.37c0-1,0-1.79,0-2.74l11.45-2.37m-19.34-14v7.82l18.73-3.86c0,.86,0,1.48,0,2.35l-18.73,3.86,0,18.39,27.28-5.65V493.08Z" transform="translate(-388 -334.93)" style="fill:#fff"/><path d="M576.95,500.29c0,1,0,1.78,0,2.74l-11.46,2.35c0-.95,0-1.79,0-2.74l11.46-2.35m-19.34-14v7.8l18.74-3.84c0,.87,0,1.48,0,2.35l-18.74,3.84,0,18.33,27.28-5.61V480.77Z" transform="translate(-388 -334.93)" style="fill:#fff"/><path d="M408.76,545.73l32.8-6.85,0-8.17L417,535.83c0-1.95,0-20.32,0-22.28l24.38-5.06v-8.2L408.79,507Z" transform="translate(-388 -334.93)" style="fill:#fff"/><path d="M464,523.6c0,1,0,1.79,0,2.75l-11.47,2.38c0-1,0-1.79,0-2.75L464,523.6m-19.35-14v7.84l18.74-3.88c0,.87,0,1.49,0,2.36l-18.74,3.88,0,18.44,27.28-5.68V503.95Z" transform="translate(-388 -334.93)" style="fill:#fff"/><path d="M475.09,503.3,475,531.9l7.91-1.65s0-18.75,0-20.75l11.42-2.36,0-7.83Z" transform="translate(-388 -334.93)" style="fill:#fff"/><path d="M546.61,496.37c0,1.76,0,11.14,0,12.9l-10.86,2.24c0-1.76,0-11.15,0-12.91l10.86-2.23M527.83,482.5l0,38.44,26.64-5.5V487l-18.79,3.86c0-1.76,0-9.94,0-9.94Z" transform="translate(-388 -334.93)" style="fill:#fff"/><path d="M607.29,484c0,1.75,0,11.09,0,12.84l-11.44,2.34c0-1.75,0-11.09,0-12.84L607.29,484M588,480.13l0,28.43L615.19,503l0-28.39Z" transform="translate(-388 -334.93)" style="fill:#fff"/><path d="M548.69,554.8l-7.56,1.53.09-9.6,7.49-1.53Zm-49.05,9.86-24.25,5-.07-18.89,24.41-5.09Zm60.25-32.94L519,540l.11,20.79-8.19,1.69,0-20.86-10.91,2.2,0-10-35.81,7.44V583l95.79-19.55Z" transform="translate(-388 -334.93)" style="fill:#100c08"/><path d="M548.69,554.8l-7.56,1.53.09-9.6,7.49-1.53Zm-49.05,9.86-24.25,5-.07-18.89,24.41-5.09Zm60.25-32.94L519,540l.11,20.79-8.19,1.69,0-20.86-10.91,2.2,0-10-35.81,7.44V583l95.79-19.55Z" transform="translate(-388 -334.93)" style="fill:none;stroke:#100c08;stroke-miterlimit:10;stroke-width:0.13069649040699005px"/><polygon points="153.17 232.24 142.02 234.54 142 244.49 153.18 242.2 153.17 232.24" style="fill:#100c08"/><polygon points="153.17 232.24 142.02 234.54 142 244.49 153.18 242.2 153.17 232.24" style="fill:none;stroke:#100c08;stroke-miterlimit:10;stroke-width:0.13069649040699005px"/><path d="M465.21,581.32l32.8-6.85,0-8.17-24.61,5.13c0-1.95,0-20.33,0-22.28l24.37-5.06v-8.2l-32.58,6.74Z" transform="translate(-388 -334.93)" style="fill:#fff"/><path d="M550.17,555.84l-10.86,2.24c0-1.76,0-11.14,0-12.91l10.86-2.23c0,1.76,0,11.14,0,12.9m7.91-22.32L531.4,539l0,28.13v10.31l7.88-1.64c0-1.55,0-8.35,0-9.95L558.07,562Z" transform="translate(-388 -334.93)" style="fill:#fff"/><path d="M509.07,543.87l-7.89,1.6,0,28.43,27.25-5.59,0-28.39-7.91,1.61,0,7.78c0,1.76,0,11.08,0,12.84l-11.44,2.34c0-1.76,0-11.09,0-12.84Z" transform="translate(-388 -334.93)" style="fill:#fff"/><polygon points="228.56 238.24 29.55 276.82 29.69 273.67 228.53 235.1 228.56 238.24" style="fill:#fff"/><polygon points="228.56 238.24 29.55 276.82 29.69 273.67 228.53 235.1 228.56 238.24" style="fill:none;stroke:#fff;stroke-miterlimit:10;stroke-width:0.7511292695999146px"/><path d="M513.46,625v20.35h.07c.21,2,1.3,4.07,3.82,4.07h11V644h-9.19v-4h8.69v-5.71h-8.69v-3.61h9.37V625h-15Z" transform="translate(-388 -334.93)" style="fill:#fff"/><path d="M533.11,646.21c.44,2,1.45,3.18,3.4,3.15H539v-9.63h7.86v-5.28H539v-4.22h8.81v-5.34H532.92Z" transform="translate(-388 -334.93)" style="fill:#fff"/><path d="M552.11,624.94V644c0,2.61.27,5.23,3.55,5.23h9.73V644H557.7V624.94Z" transform="translate(-388 -334.93)" style="fill:#fff"/><path d="M466.86,627.39a2.76,2.76,0,1,1-2.76-2.86,2.81,2.81,0,0,1,2.76,2.86" transform="translate(-388 -334.93)" style="fill:#fff"/><path d="M474.32,627.21a3.24,3.24,0,1,1-3.24-3.34,3.3,3.3,0,0,1,3.24,3.34" transform="translate(-388 -334.93)" style="fill:#fff"/><path d="M480.82,630.95a3.43,3.43,0,1,1-3.43-3.55,3.49,3.49,0,0,1,3.43,3.55" transform="translate(-388 -334.93)" style="fill:#fff"/><path d="M471.34,633.65a3.08,3.08,0,1,1-3.07-3.18,3.13,3.13,0,0,1,3.07,3.18" transform="translate(-388 -334.93)" style="fill:#fff"/><path d="M464.55,633a2.53,2.53,0,1,1-2.53-2.58,2.56,2.56,0,0,1,2.53,2.58" transform="translate(-388 -334.93)" style="fill:#fff"/><path d="M477.09,637.35a3.06,3.06,0,1,1-3.05-3.11,3.08,3.08,0,0,1,3.05,3.11" transform="translate(-388 -334.93)" style="fill:#fff"/><path d="M463.91,638.67a2.42,2.42,0,1,1-2.41-2.5,2.45,2.45,0,0,1,2.41,2.5" transform="translate(-388 -334.93)" style="fill:#fff"/><path d="M469.61,640a2.49,2.49,0,1,1-2.49-2.57,2.54,2.54,0,0,1,2.49,2.57" transform="translate(-388 -334.93)" style="fill:#fff"/><path d="M474.52,643.09a2.49,2.49,0,1,1-2.49-2.58,2.53,2.53,0,0,1,2.49,2.58" transform="translate(-388 -334.93)" style="fill:#fff"/><path d="M474.2,648.4a2.13,2.13,0,1,1-2.13-2.16,2.15,2.15,0,0,1,2.13,2.16" transform="translate(-388 -334.93)" style="fill:#fff"/><path d="M469.28,645.37a2.13,2.13,0,1,1-2.13-2.17,2.16,2.16,0,0,1,2.13,2.17" transform="translate(-388 -334.93)" style="fill:#fff"/><path d="M464.31,643.72a2.13,2.13,0,1,1-2.13-2.18,2.16,2.16,0,0,1,2.13,2.18" transform="translate(-388 -334.93)" style="fill:#fff"/><path d="M465.18,647.65a1.61,1.61,0,1,1-1.61-1.64,1.63,1.63,0,0,1,1.61,1.64" transform="translate(-388 -334.93)" style="fill:#fff"/><path d="M469.68,649.59a1.61,1.61,0,1,1-1.61-1.64,1.63,1.63,0,0,1,1.61,1.64" transform="translate(-388 -334.93)" style="fill:#fff"/><path d="M466.41,650.72a1.32,1.32,0,1,1-1.32-1.34,1.33,1.33,0,0,1,1.32,1.34" transform="translate(-388 -334.93)" style="fill:#fff"/><path d="M468.27,653.11a1.23,1.23,0,1,1-1.23-1.25,1.24,1.24,0,0,1,1.23,1.25" transform="translate(-388 -334.93)" style="fill:#fff"/><path d="M471.28,652.84a1.22,1.22,0,1,1-1.22-1.25,1.23,1.23,0,0,1,1.22,1.25" transform="translate(-388 -334.93)" style="fill:#fff"/><path d="M475,652.51a1.61,1.61,0,1,1-1.61-1.64,1.63,1.63,0,0,1,1.61,1.64" transform="translate(-388 -334.93)" style="fill:#fff"/><path d="M473.34,656.09a1.22,1.22,0,1,1-1.22-1.24,1.24,1.24,0,0,1,1.22,1.24" transform="translate(-388 -334.93)" style="fill:#fff"/><path d="M476.5,655.8a1.3,1.3,0,1,1-1.3-1.32,1.31,1.31,0,0,1,1.3,1.32" transform="translate(-388 -334.93)" style="fill:#fff"/><path d="M470.5,655.44a.92.92,0,1,1-.92-.94.93.93,0,0,1,.92.94" transform="translate(-388 -334.93)" style="fill:#fff"/><path d="M474.91,658a.86.86,0,1,1-.86-.87.87.87,0,0,1,.86.87" transform="translate(-388 -334.93)" style="fill:#fff"/><path d="M478,658.29a1.13,1.13,0,1,1-1.13-1.14,1.14,1.14,0,0,1,1.13,1.14" transform="translate(-388 -334.93)" style="fill:#fff"/><path d="M480,659.46a.8.8,0,1,1-.79-.81.8.8,0,0,1,.79.81" transform="translate(-388 -334.93)" style="fill:#fff"/><path d="M500,627.7a2.76,2.76,0,1,1,3.71-1.41A2.81,2.81,0,0,1,500,627.7" transform="translate(-388 -334.93)" style="fill:#fff"/><path d="M496.26,634a3.24,3.24,0,1,1,4.35-1.66,3.29,3.29,0,0,1-4.35,1.66" transform="translate(-388 -334.93)" style="fill:#fff"/><path d="M489.93,637.9a3.43,3.43,0,1,1,4.61-1.76,3.49,3.49,0,0,1-4.61,1.76" transform="translate(-388 -334.93)" style="fill:#fff"/><path d="M491.92,628.26a3.08,3.08,0,1,1,4.13-1.58,3.13,3.13,0,0,1-4.13,1.58" transform="translate(-388 -334.93)" style="fill:#fff"/><path d="M496,622.9a2.53,2.53,0,1,1,3.37-1.31A2.55,2.55,0,0,1,496,622.9" transform="translate(-388 -334.93)" style="fill:#fff"/><path d="M486.12,631.33a3.05,3.05,0,1,1,4.06-1.59,3.08,3.08,0,0,1-4.06,1.59" transform="translate(-388 -334.93)" style="fill:#fff"/><path d="M491.53,619.53a2.41,2.41,0,1,1,3.25-1.24,2.45,2.45,0,0,1-3.25,1.24" transform="translate(-388 -334.93)" style="fill:#fff"/><path d="M487.42,623.58a2.49,2.49,0,1,1,3.35-1.28,2.54,2.54,0,0,1-3.35,1.28" transform="translate(-388 -334.93)" style="fill:#fff"/><path d="M482.06,626.16a2.49,2.49,0,1,1,3.35-1.28,2.54,2.54,0,0,1-3.35,1.28" transform="translate(-388 -334.93)" style="fill:#fff"/><path d="M477.78,623.43a2.13,2.13,0,1,1,2.82-1.11,2.14,2.14,0,0,1-2.82,1.11" transform="translate(-388 -334.93)" style="fill:#fff"/><path d="M482.78,620.66a2.13,2.13,0,1,1,2.84-1.1,2.15,2.15,0,0,1-2.84,1.1" transform="translate(-388 -334.93)" style="fill:#fff"/><path d="M486.73,617.29a2.13,2.13,0,1,1,2.84-1.1,2.15,2.15,0,0,1-2.84,1.1" transform="translate(-388 -334.93)" style="fill:#fff"/><path d="M482.91,615.92a1.61,1.61,0,1,1,2.14-.84,1.63,1.63,0,0,1-2.14.84" transform="translate(-388 -334.93)" style="fill:#fff"/><path d="M478.88,619.09a1.61,1.61,0,1,1,2.14-.84,1.62,1.62,0,0,1-2.14.84" transform="translate(-388 -334.93)" style="fill:#fff"/><path d="M479.47,615.64a1.32,1.32,0,1,1,1.75-.68,1.32,1.32,0,0,1-1.75.68" transform="translate(-388 -334.93)" style="fill:#fff"/><path d="M476.34,616a1.23,1.23,0,1,1,1.64-.64,1.24,1.24,0,0,1-1.64.64" transform="translate(-388 -334.93)" style="fill:#fff"/><path d="M475.06,618.53a1.22,1.22,0,1,1,1.63-.63,1.23,1.23,0,0,1-1.63.63" transform="translate(-388 -334.93)" style="fill:#fff"/><path d="M473.47,622a1.61,1.61,0,1,1,2.14-.84,1.63,1.63,0,0,1-2.14.84" transform="translate(-388 -334.93)" style="fill:#fff"/><path d="M471.19,618.81a1.22,1.22,0,1,1,1.62-.64,1.24,1.24,0,0,1-1.62.64" transform="translate(-388 -334.93)" style="fill:#fff"/><path d="M470,621.55a1.3,1.3,0,1,1,1.73-.68,1.31,1.31,0,0,1-1.73.68" transform="translate(-388 -334.93)" style="fill:#fff"/><path d="M473.11,616.59a.92.92,0,1,1,1.22-.48.93.93,0,0,1-1.22.48" transform="translate(-388 -334.93)" style="fill:#fff"/><path d="M468.71,619.14a.86.86,0,1,1,1.14-.45.86.86,0,0,1-1.14.45" transform="translate(-388 -334.93)" style="fill:#fff"/><path d="M466.86,621.58a1.13,1.13,0,1,1,1.5-.59,1.14,1.14,0,0,1-1.5.59" transform="translate(-388 -334.93)" style="fill:#fff"/><path d="M464.83,622.8a.8.8,0,1,1,1.06-.42.81.81,0,0,1-1.06.42" transform="translate(-388 -334.93)" style="fill:#fff"/><path d="M482.7,655.5a2.76,2.76,0,1,1-.67,3.92,2.81,2.81,0,0,1,.67-3.92" transform="translate(-388 -334.93)" style="fill:#fff"/><path d="M479.17,649.07a3.24,3.24,0,1,1-.78,4.6,3.3,3.3,0,0,1,.78-4.6" transform="translate(-388 -334.93)" style="fill:#fff"/><path d="M479,641.65a3.43,3.43,0,1,1-.83,4.87,3.5,3.5,0,0,1,.83-4.87" transform="translate(-388 -334.93)" style="fill:#fff"/><path d="M486.32,648.27a3.07,3.07,0,1,1-.74,4.36,3.13,3.13,0,0,1,.74-4.36" transform="translate(-388 -334.93)" style="fill:#fff"/><path d="M488.84,654.54a2.53,2.53,0,1,1-.58,3.57,2.55,2.55,0,0,1,.58-3.57" transform="translate(-388 -334.93)" style="fill:#fff"/><path d="M486.63,641.71a3.05,3.05,0,1,1-.7,4.3,3.08,3.08,0,0,1,.7-4.3" transform="translate(-388 -334.93)" style="fill:#fff"/><path d="M494,652.37a2.41,2.41,0,1,1-.58,3.43,2.46,2.46,0,0,1,.58-3.43" transform="translate(-388 -334.93)" style="fill:#fff"/><path d="M492.65,646.77a2.49,2.49,0,1,1-.6,3.54,2.54,2.54,0,0,1,.6-3.54" transform="translate(-388 -334.93)" style="fill:#fff"/><path d="M493.14,640.84a2.49,2.49,0,1,1-.6,3.53,2.53,2.53,0,0,1,.6-3.53" transform="translate(-388 -334.93)" style="fill:#fff"/><path d="M497.67,638.55a2.13,2.13,0,1,1-.48,3,2.15,2.15,0,0,1,.48-3" transform="translate(-388 -334.93)" style="fill:#fff"/><path d="M497.52,644.26a2.13,2.13,0,1,1-.5,3,2.16,2.16,0,0,1,.5-3" transform="translate(-388 -334.93)" style="fill:#fff"/><path d="M498.41,649.37a2.13,2.13,0,1,1-.5,3,2.16,2.16,0,0,1,.5-3" transform="translate(-388 -334.93)" style="fill:#fff"/><path d="M501.53,646.79a1.61,1.61,0,1,1-.37,2.27,1.62,1.62,0,0,1,.37-2.27" transform="translate(-388 -334.93)" style="fill:#fff"/><path d="M500.85,641.7a1.61,1.61,0,1,1-.37,2.27,1.62,1.62,0,0,1,.37-2.27" transform="translate(-388 -334.93)" style="fill:#fff"/><path d="M503.52,644a1.32,1.32,0,1,1-.3,1.85,1.33,1.33,0,0,1,.3-1.85" transform="translate(-388 -334.93)" style="fill:#fff"/><path d="M504.81,641.08a1.23,1.23,0,1,1-.28,1.73,1.24,1.24,0,0,1,.28-1.73" transform="translate(-388 -334.93)" style="fill:#fff"/><path d="M503.28,638.69a1.22,1.22,0,1,1-.28,1.72,1.24,1.24,0,0,1,.28-1.72" transform="translate(-388 -334.93)" style="fill:#fff"/><path d="M501.13,635.58a1.61,1.61,0,1,1-.37,2.27,1.62,1.62,0,0,1,.37-2.27" transform="translate(-388 -334.93)" style="fill:#fff"/><path d="M505,635.22a1.22,1.22,0,1,1-.28,1.72,1.24,1.24,0,0,1,.28-1.72" transform="translate(-388 -334.93)" style="fill:#fff"/><path d="M503.25,632.81a1.3,1.3,0,1,1-.3,1.83,1.31,1.31,0,0,1,.3-1.83" transform="translate(-388 -334.93)" style="fill:#fff"/><path d="M505.94,638a.92.92,0,1,1-.21,1.3.93.93,0,0,1,.21-1.3" transform="translate(-388 -334.93)" style="fill:#fff"/><path d="M506,632.92a.86.86,0,1,1-.19,1.2.87.87,0,0,1,.19-1.2" transform="translate(-388 -334.93)" style="fill:#fff"/><path d="M504.82,630.08a1.13,1.13,0,1,1-.26,1.59,1.13,1.13,0,0,1,.26-1.59" transform="translate(-388 -334.93)" style="fill:#fff"/><path d="M504.8,627.72a.81.81,0,0,1,1.12.17.81.81,0,1,1-1.12-.17" transform="translate(-388 -334.93)" style="fill:#fff"/></svg>