<svg xmlns="http://www.w3.org/2000/svg" viewBox="0 0 135.61 192.49"><defs><style>.a{fill:#ff6900;}</style></defs><title>UEFA Europa League logo</title><path d="M521.67,535.69l4.37,1.13.69-2.67-4.5-1.17c-2.46-.64-4.15.28-4.75,2.6l-1.84,7.09a1.1,1.1,0,0,0,.83,1.42l1.67.43,1.18-4.58,5.06,1.31.68-2.64L520,537.31l.2-.76c.26-1,.56-1.09,1.46-.86Zm-14.19-3.91-7.3,1.48a1.11,1.11,0,0,0-.91,1.37l1.45,7.17a3.61,3.61,0,0,0,1.55,2.49,3.51,3.51,0,0,0,1.88.49,6,6,0,0,0,1.18-.13l4.56-.93-.55-2.7-4.44.9c-.91.18-1.2.08-1.41-.94l-.16-.77,5.13-1-.54-2.67-5.13,1-.39-1.92,5.61-1.14-.55-2.7Zm30.92,10.15a1.29,1.29,0,0,0-.46-1.57l-.44-.34a1.27,1.27,0,0,0-1.64,0l-10.39,6.72,2.72,1.54L534.8,544l-1.14,3.85-1-.76-1.73,1.24,2.15,1.61-.5,1.73L535,553.8l3.45-11.87Zm-56.32-2.06a46.27,46.27,0,0,1,59.83,0q1.28,1.1,2.45,2.29l1.54-1.91q-1.15-1.15-2.4-2.23a48.7,48.7,0,0,0-63,0q-1.25,1.08-2.4,2.23l1.54,1.91q1.17-1.18,2.45-2.29Zm29.91,9.2a25.28,25.28,0,0,1,19.47,9l1.49-1.85a28,28,0,0,0-41.93,0l1.5,1.85a25.28,25.28,0,0,1,19.47-9ZM492.07,548a2.46,2.46,0,0,1-1.79.61c-.73-.08-1.17-.38-1.9-1.28l-4.18-5.14L482,544l4.55,5.6a4.82,4.82,0,0,0,3.37,1.94l.46,0a5.46,5.46,0,0,0,3.56-1.35,5.38,5.38,0,0,0,2.12-3.66,4.82,4.82,0,0,0-1.21-3.7l-4.55-5.6L488,539.08l4.18,5.14a2.66,2.66,0,0,1,.86,2.12,2.47,2.47,0,0,1-1,1.63Zm2.73,20.21H499c2.33,0,3.21,1.2,3.21,2.82s-.88,2.82-3.21,2.82H494.8Zm8,19.59h6.34l-5.5-9.9a7.63,7.63,0,0,0,4.26-6.87c0-4.83-3.91-7.89-8.91-7.89h-9.79v24.66h5.64v-8.88h3ZM487.32,602.2h6.14v-3h-6.14v-2.7H494v-3H484V608h10.13v-3h-6.84Zm14.27.08,1.69-4.43,1.69,4.43Zm-.06-8.71L495.68,608h3.73l1-2.74h5.64l1,2.74h3.73L505,593.57ZM563.92,578l2.89-7.57L569.7,578Zm5.88-14.9h-6l-10,24.66h6.38l1.8-4.69h9.65l1.8,4.69h6.38l-10-24.66Zm-52.44,39.72h4.45v1a4.4,4.4,0,0,1-3.3,1.42c-2.49,0-4.37-1.46-4.37-4.49s2-4.49,4-4.49a3.25,3.25,0,0,1,3.42,2.47l3.15-.93c-.74-2.7-2.84-4.51-6.53-4.51a7.46,7.46,0,0,0,0,14.92,7.94,7.94,0,0,0,6.66-3.17v-4.82h-7.52v2.58Zm17.95-.68c0,1.94-1,3.13-2.8,3.13s-2.8-1.19-2.8-3.13v-8.56h-3.29v8.75c0,4,2.78,5.91,6.09,5.91s6.1-1.91,6.1-5.91v-8.75h-3.29Zm8.45.06h6.14v-3h-6.14v-2.7h6.67v-3h-10V608H550.6v-3h-6.84V602.2Zm-68.12-8.63h-3.29V608h10.13v-3h-6.84V593.57Zm10-30.47H480v14.65c0,3.31-1.69,5.35-4.79,5.35s-4.79-2-4.79-5.35V563.1h-5.64v15c0,6.87,4.75,10.11,10.43,10.11s10.43-3.28,10.43-10.11Zm57.78,5.07h3.73c2.5,0,3.49,1.3,3.49,3.1s-1,3.1-3.49,3.1h-3.73v-6.2Zm-5.64,19.59h5.64v-8.31h4c4.86,0,8.84-2.82,8.84-8.17s-4-8.17-8.84-8.17h-9.65v24.66Zm-15.28-20.15c3.52,0,6.3,2.53,6.3,7.81s-2.78,7.82-6.3,7.82-6.3-2.53-6.3-7.82S518.94,567.61,522.46,567.61Zm0,20.7c7.25,0,11.93-4.89,11.93-12.88s-4.68-12.88-11.93-12.88-11.93,4.89-11.93,12.88S515.21,588.31,522.46,588.31Zm-72.63-10.44h10.5v-5.07h-10.5v-4.61h11.41V563.1h-17v24.66h17.33v-5.07H449.83Z" transform="translate(-444.19 -415.76)"/><path class="a" d="M536,434.21l-2.42,8.22A36.58,36.58,0,0,1,531,503.3l2.79,7.8A44.76,44.76,0,0,0,536,434.21ZM475.39,472a36.58,36.58,0,0,1,15-29.56L488,434.21a44.76,44.76,0,0,0,2.24,76.89l2.79-7.8A36.63,36.63,0,0,1,475.39,472Z" transform="translate(-444.19 -415.76)"/><path d="M517.25,504.33,512,480.6l-5.29,23.73Zm-20.33,4.07-3,8.39H530l-3-8.39Zm28.62-4.07L516.85,480l16.38-55.75-19.91-8.5v59.08l6.57,29.49h5.65Zm-27.17,0H504l6.57-29.49V415.76l-19.91,8.5L507.08,480l-8.7,24.33Z" transform="translate(-444.19 -415.76)"/></svg>