<?xml version="1.0" encoding="UTF-8" standalone="no"?>
<!-- Created with Inkscape (http://www.inkscape.org/) -->

<svg
   xmlns:dc="http://purl.org/dc/elements/1.1/"
   xmlns:cc="http://creativecommons.org/ns#"
   xmlns:rdf="http://www.w3.org/1999/02/22-rdf-syntax-ns#"
   xmlns:svg="http://www.w3.org/2000/svg"
   xmlns="http://www.w3.org/2000/svg"
   xmlns:sodipodi="http://sodipodi.sourceforge.net/DTD/sodipodi-0.dtd"
   xmlns:inkscape="http://www.inkscape.org/namespaces/inkscape"
   width="141.11111mm"
   height="67.320404mm"
   viewBox="0 0 500.00001 238.53686"
   id="svg11036"
   version="1.1"
   inkscape:version="0.91 r13725"
   sodipodi:docname="FA Cup.svg">
  <defs
     id="defs11038" />
  <sodipodi:namedview
     id="base"
     pagecolor="#ffffff"
     bordercolor="#666666"
     borderopacity="1.0"
     inkscape:pageopacity="0.0"
     inkscape:pageshadow="2"
     inkscape:zoom="2.2599999"
     inkscape:cx="250.00001"
     inkscape:cy="119.26843"
     inkscape:document-units="px"
     inkscape:current-layer="layer1"
     showgrid="false"
     fit-margin-top="0"
     fit-margin-left="0"
     fit-margin-right="0"
     fit-margin-bottom="0"
     inkscape:window-width="1600"
     inkscape:window-height="838"
     inkscape:window-x="-8"
     inkscape:window-y="-8"
     inkscape:window-maximized="1" />
  <metadata
     id="metadata11041">
    <rdf:RDF>
      <cc:Work
         rdf:about="">
        <dc:format>image/svg+xml</dc:format>
        <dc:type
           rdf:resource="http://purl.org/dc/dcmitype/StillImage" />
        <dc:title></dc:title>
      </cc:Work>
    </rdf:RDF>
  </metadata>
  <g
     inkscape:label="Calque 1"
     inkscape:groupmode="layer"
     id="layer1"
     transform="translate(-272.33725,-218.11106)">
    <g
       style="clip-rule:evenodd;fill-rule:evenodd;image-rendering:optimizeQuality;shape-rendering:geometricPrecision;text-rendering:geometricPrecision"
       id="g11906"
       transform="matrix(0.86740727,0,0,0.8674073,273.30695,220.27958)">
      <path
         style="fill:#d81921;fill-opacity:1;stroke:#ffffff;stroke-width:5;stroke-linecap:round;stroke-linejoin:round;stroke-miterlimit:2.61299992;stroke-dasharray:none;stroke-opacity:1"
         d="M 50.38207,269.99983 C 11.3107,222.56932 2.21031,165.3157 1.38207,134.99991 2.21031,104.68413 11.3107,47.430507 50.38207,0 l 473.43049,0 c 39.07137,47.430507 48.17176,104.68413 49,134.99991 -0.82824,30.31579 -9.92863,87.56941 -49,134.99992 z"
         id="path11766"
         inkscape:connector-curvature="0"
         sodipodi:nodetypes="ccccccc" />
      <path
         sodipodi:nodetypes="cccccc"
         inkscape:connector-curvature="0"
         id="path11768"
         d="m 287.09732,269.99983 -236.71525,0 C 11.3107,222.56932 2.21031,165.3157 1.38207,134.99991 2.21031,104.68413 11.3107,47.430507 50.38207,0 l 236.71525,0 z"
         style="fill:#001749;fill-opacity:1;stroke:#ffffff;stroke-width:5;stroke-linecap:round;stroke-linejoin:round;stroke-miterlimit:2.61299992;stroke-dasharray:none;stroke-opacity:1" />
      <path
         d="m 431.80533,67.750987 0,23.497153 16.30121,0 0.29683,-4.564658 -10.09199,0 0,-5.086103 7.57301,0 0,-4.524546 -7.57301,0 0,-4.75719 9.24164,0 0,-4.564656 -15.74769,0 z m -9.53844,0 0,9.233603 -6.97934,0 0,-9.233603 -6.49,0 0,23.497153 6.49,0 0,-9.161404 6.97934,0 0,9.161404 6.49803,0 0,-23.497153 -6.49803,0 z m -34.4074,0 0,4.564656 6.65045,0 0,18.932497 6.49,0 0,-18.932497 6.6424,0 0,-4.564656 -19.78285,0 z"
         style="clip-rule:evenodd;fill:#ffffff;fill-rule:evenodd;stroke:none;image-rendering:optimizeQuality;shape-rendering:geometricPrecision;text-rendering:geometricPrecision"
         id="path11878"
         inkscape:connector-curvature="0" />
      <path
         d="m 411.81716,164.53484 c -2.73452,3.19217 -3.88416,7.87997 -3.88416,12.43384 l 0,0 c 0,10.08994 4.67662,17.43415 15.49206,17.43415 l 0,0 c 4.62084,0 9.39792,-1.68538 11.75298,-3.35959 l 0,0 0.59157,-7.0875 c -2.68992,1.57375 -6.73036,3.41539 -10.30201,3.41539 l 0,0 c -5.30167,0 -7.76834,-4.19669 -7.76834,-10.87123 l 0,0 c 0,-5.08961 1.57373,-9.60999 5.1454,-9.60999 l 0,0 c 2.31041,0 3.40423,1.84164 4.04045,4.8887 l 0,0 9.35326,-1.74118 C 435.28965,163.9991 430.72463,159.914 423.15718,159.914 l 0,0 c -5.04498,0 -8.87333,1.73003 -11.34002,4.62084 m 57.22467,-3.43771 0,6.35085 3.31494,0 0,26.34097 9.0296,0 0,-9.40908 4.02927,0 c 7.94694,0 14.40942,-2.47784 14.40942,-11.8646 l 0,0 c 0,-10.3913 -7.84648,-11.41814 -16.21757,-11.41814 l 0,0 -14.56566,0 z m 12.34454,6.35085 3.05823,0 c 3.56049,0 6.08299,1.08265 6.08299,5.11193 l 0,0 c 0,4.17438 -2.1095,5.52491 -5.92674,5.52491 l 0,0 -3.21448,0 0,-10.63684 z m -24.14216,-6.35085 0,20.76025 c 0,1.60724 -0.20104,3.04708 -1.08265,4.08509 l 0,0 c -0.68087,0.77014 -1.79701,1.29473 -3.5047,1.29473 l 0,0 c -1.76353,0 -2.95779,-0.52459 -3.67212,-1.50679 l 0,0 c -0.66968,-0.92641 -0.93755,-2.16532 -0.93755,-3.97348 l 0,0 0,-20.6598 -9.02962,0 0,21.07278 c 0,3.81721 0.77013,6.50711 2.42206,8.41572 l 0,0 c 2.27692,2.72339 6.09411,3.82837 11.00516,3.82837 l 0,0 c 5.16773,0 8.94031,-1.45099 11.16143,-4.18554 l 0,0 c 1.70768,-2.06486 2.41086,-4.75478 2.41086,-8.32643 l 0,0 0,-20.8049 -8.77287,0 z"
         style="clip-rule:evenodd;fill:#ffffff;fill-rule:evenodd;stroke:none;image-rendering:optimizeQuality;shape-rendering:geometricPrecision;text-rendering:geometricPrecision"
         id="path11880"
         inkscape:connector-curvature="0" />
      <path
         d="m 371.07431,159.91438 0,6.71111 3.32359,0 -9.04044,27.78889 9.31741,0 1.84644,-6.3205 11.49762,0 2.08079,6.3205 9.97075,0 -12.42792,-34.5 -16.56824,0 z m 9.6512,13.46481 c 0.59654,-2.0737 1.02972,-3.92723 1.08655,-5.17002 l 0,0 0.1136,0 c 0.0568,1.41323 0.64625,3.26677 1.3067,5.21973 l 0,0 2.66312,8.28767 -7.57039,0 2.40039,-8.33738 z m -36.28961,-13.46481 0,34.5 9.53755,0 0,-14.16786 11.16385,0 0,-6.65428 -11.16385,0 0,-6.96675 13.57134,0 0,-6.71111 -23.10889,0 z"
         style="clip-rule:evenodd;fill:#ffffff;fill-rule:evenodd;stroke:none;image-rendering:optimizeQuality;shape-rendering:geometricPrecision;text-rendering:geometricPrecision"
         id="path11882"
         inkscape:connector-curvature="0" />
      <g
         id="g11884"
         style="fill:#ffffff"
         transform="matrix(2.1369936,0,0,2.1369936,-180.33987,439.40096)">
        <path
           d="m 132.04646,-170.73747 c 0.74398,0.0595 1.75579,0.30131 2.46257,1.10109 0,0 1.15317,0.91138 0.66959,2.42166 -0.0707,0.23063 -0.55799,-0.0298 -0.94486,0.25667 -0.66214,0.49103 -0.62494,1.69999 0.35339,2.0943 1.06389,0.43151 1.76323,-0.52822 2.04223,-1.03413 0.11531,-0.21203 0.0893,0.0781 0.0558,0.24179 -0.30876,1.43217 -1.57724,2.30262 -3.32932,1.7186 -1.18292,-0.39059 -2.01246,-2.22822 -2.09802,-2.83457 0,0 1.65536,-0.15623 1.54004,-1.75951 0,0 -0.0856,-0.89649 -0.89278,-1.67023 -0.21947,-0.21204 -0.42034,-0.58031 0.14136,-0.53567"
           style="clip-rule:evenodd;fill:#ffffff;fill-opacity:1;fill-rule:nonzero;stroke:none;image-rendering:optimizeQuality;shape-rendering:geometricPrecision;text-rendering:geometricPrecision"
           id="path11886"
           inkscape:connector-curvature="0" />
        <path
           d="m 168.38988,-171.22254 c -2.66345,-0.40175 -3.41487,-3.08008 -3.41487,-3.08008 -0.53566,-2.15382 -1.14945,-2.09802 -1.43588,-2.20218 -0.12648,-0.0446 -0.37199,-0.0967 -0.69562,-0.1302 -0.65098,-0.0781 -1.08249,-0.14135 -2.45886,-0.19343 -0.40175,-0.0149 -1.32428,-0.0818 -1.48052,-0.10788 -0.32363,-0.093 -1.07133,-0.43151 -1.42844,-0.89649 -0.58774,-0.76258 -0.55426,-1.67396 -0.52822,-1.96039 1.48052,-0.27155 2.56673,-1.10481 2.56673,-2.08315 0,-1.20152 -1.63304,-2.18358 -3.63063,-2.18358 l -1.1606,0 c -0.19716,-0.52078 -0.30504,-1.72975 -0.34968,-2.13894 -0.14507,-1.35032 0.36084,-2.09058 0.36084,-2.09058 l 0.71794,0 0.0149,0 c 0.44266,0 1.4024,-0.94114 0.6175,-2.3361 l -0.0223,-0.0298 c -0.23435,-0.34967 -0.69562,-0.73654 -1.03785,-1.26849 -0.45383,-0.70306 -0.70306,-1.65907 0.026,-3.11355 0,0 0.24551,-0.39431 -0.0223,-0.70678 -0.15252,-0.186 -0.49475,-0.34224 -1.17921,-0.36456 -0.026,-0.33479 -0.10416,-0.62122 -0.20832,-0.81837 -0.10043,-0.2046 -0.24179,-0.31991 -0.36827,-0.31991 -0.12275,0 -0.27155,0.11531 -0.37571,0.31991 -0.10043,0.19715 -0.18227,0.48358 -0.20831,0.81837 -0.68446,0.0223 -1.02297,0.17856 -1.17549,0.36456 -0.26783,0.31247 -0.0223,0.70678 -0.0223,0.70678 0.7291,1.45448 0.47987,2.41049 0.026,3.11355 -0.34595,0.53195 -0.80722,0.91882 -1.03785,1.26849 l -0.0186,0.0298 c -0.79234,1.39496 0.17112,2.3361 0.61378,2.3361 l 0.0149,0 0.71422,0 c 0,0 0.50591,0.74026 0.36083,2.09058 -0.0446,0.40919 -0.14879,1.61816 -0.34595,2.13894 l -1.16061,0 c -1.99758,0 -3.63062,0.98206 -3.63062,2.18358 0,0.97834 1.08249,1.8116 2.56673,2.08315 0.026,0.28643 0.0595,1.19781 -0.53194,1.96039 -0.35339,0.46498 -1.10109,0.8035 -1.42472,0.89649 -0.15624,0.026 -1.07878,0.093 -1.48425,0.10788 -1.36892,0.0521 -1.80787,0.11532 -2.45885,0.19343 -0.31991,0.0335 -0.56542,0.0856 -0.69562,0.1302 -0.28271,0.10416 -0.90022,0.0484 -1.43216,2.20218 0,0 -0.75514,2.67833 -3.41487,3.08008 0,0 -0.35339,0.0632 -0.23807,0.26039 0.0595,0.1674 8.94636,14.35882 2.09802,22.90343 l -0.007,0.0149 c -1.67024,2.25426 -3.38511,5.35666 -2.33982,9.00588 0.0781,0.27899 0.26783,0.6733 0.63982,1.19037 -7.33192,4.19233 -8.52229,8.16146 -8.76036,11.09646 -1.13829,14.06123 34.47604,21.22947 24.91589,39.185435 -0.12647,0.230633 0.49475,-0.04464 1.18665,-0.75886 0.6919,-0.714221 7.5142,-6.829738 8.78269,-11.847885 3.15075,-12.45423 -26.28482,-16.47544 -32.27014,-24.96797 -3.69758,-5.24506 3.71618,-10.25949 6.6549,-11.97064 l 0,0 c 0.94858,-0.58775 4.92887,-2.93872 9.00588,-4.95491 3.90962,-1.93435 8.17262,-4.08817 10.14789,-6.25315 l -0.0112,0.0372 0.0335,-0.0298 c 0.34967,-0.35339 0.50218,0.79606 -0.30875,2.47745 l -0.92998,0.004 c -0.39431,0.32735 -0.81838,0.65098 -1.26848,0.96718 l 1.65163,-0.004 c -0.25667,0.39803 -0.56542,0.81093 -0.92997,1.23128 l -2.62997,0.004 c -0.53195,0.31247 -1.08621,0.62123 -1.65908,0.92254 l 3.39627,-0.007 c -0.46499,0.43151 -0.99693,0.8593 -1.59956,1.27964 l -4.449,0.007 c -0.25295,0.1116 -0.51334,0.2232 -0.77002,0.33479 -0.38687,0.16368 -0.77002,0.34596 -1.14573,0.53567 l 4.96979,-0.007 c -0.44639,0.24923 -0.91882,0.49475 -1.43216,0.72538 -0.43151,0.20088 -0.84814,0.40175 -1.24989,0.60635 l -4.57176,0.004 c -0.41662,0.26783 -0.81465,0.5431 -1.20152,0.82209 l 4.26672,-0.004 c -0.7663,0.45011 -1.46192,0.90766 -2.09058,1.37637 l -3.94682,0 c -0.32363,0.26783 -0.62494,0.5245 -0.90393,0.77374 l 3.87985,0 c -7.49932,6.3945 -3.4409,13.95706 0.53939,16.4122 0.24179,0.14879 0.36827,0.15251 0.45383,0.0521 -0.53939,-0.49475 -1.47308,-1.68512 -1.11225,-3.80918 1.44704,-8.52229 31.46664,-9.8689 21.58286,-24.45091 -6.62886,-9.7759 2.03479,-22.73603 2.09802,-22.90343 0.11532,-0.19715 -0.23807,-0.26039 -0.23807,-0.26039"
           style="clip-rule:evenodd;fill:#ffffff;fill-opacity:1;fill-rule:nonzero;stroke:none;image-rendering:optimizeQuality;shape-rendering:geometricPrecision;text-rendering:geometricPrecision"
           id="path11888"
           inkscape:connector-curvature="0" />
        <path
           d="m 174.18103,-170.73747 c -0.74398,0.0595 -1.75579,0.30131 -2.46257,1.10109 0,0 -1.15317,0.91138 -0.66959,2.42166 0.0335,0.10787 0.15996,0.10787 0.32736,0.10787 0.18227,0 0.4129,-0.004 0.6175,0.1488 0.66214,0.49103 0.62494,1.69999 -0.35339,2.0943 -1.06389,0.43151 -1.76323,-0.52822 -2.04223,-1.03413 -0.11531,-0.21203 -0.0893,0.0781 -0.0558,0.24179 0.30876,1.43217 1.57724,2.30262 3.32932,1.7186 1.18292,-0.39059 2.01246,-2.22822 2.09802,-2.83457 0,0 -1.65536,-0.15623 -1.54004,-1.75951 0,0 0.0856,-0.89649 0.89278,-1.67023 0.21947,-0.21204 0.42034,-0.58031 -0.14136,-0.53567 m 8.25818,26.38897 c -0.98205,-1.85623 -1.65164,-3.77569 -2.10174,-5.67284 -0.81094,3.04288 -0.98206,6.60282 -0.0112,10.30412 0.0744,0.31619 0.23063,0.92626 -0.28644,1.27221 -0.90393,-2.08687 -4.00261,-10.35993 -1.08993,-19.28769 1.28709,-3.93565 0.27528,-7.76715 -0.77002,-9.98421 -0.23063,4.62384 -4.88423,11.48705 -3.92077,18.70366 0.45383,3.42975 1.74091,9.26255 5.25994,13.96823 3.51902,4.70567 5.68029,7.84155 5.68029,7.84155 5.55381,8.9724 1.20896,18.94545 1.20896,18.94545 3.97658,-3.90962 4.91771,-11.15226 4.91771,-11.15226 1.05273,-0.43151 4.91027,5.13718 4.91027,5.13718 0.36083,-17.29754 -9.33695,-21.64238 -13.79711,-30.0754 m -6.85578,-27.69094 c -1.62931,-0.77001 -3.57854,-0.32735 -5.11858,0.55055 -0.34223,-0.41291 1.39124,-1.56236 1.5698,-1.68139 1.94551,-1.30569 6.00392,-2.14267 7.99778,2.0013 0,0 1.20153,1.92691 0.46127,7.05293 -0.68818,-2.70808 -2.0571,-6.30523 -4.64987,-7.78947 l -0.0112,0.0186 c -0.0856,-0.0484 -0.15996,-0.10044 -0.24924,-0.15252"
           style="clip-rule:evenodd;fill:#ffffff;fill-opacity:1;fill-rule:nonzero;stroke:none;image-rendering:optimizeQuality;shape-rendering:geometricPrecision;text-rendering:geometricPrecision"
           id="path11890"
           inkscape:connector-curvature="0" />
        <path
           d="m 135.9159,-171.48926 c 0.34223,-0.41291 -1.38752,-1.56236 -1.5698,-1.6814 -1.94551,-1.30568 -6.00392,-2.14266 -7.99778,2.00131 0,0 -1.67396,2.17242 -0.56171,12.6179 0.40175,3.79058 0.17112,7.8304 -1.81159,12.00412 1.54748,-1.41728 5.03302,-4.9735 5.68773,-6.00764 0.66586,-1.05645 0.96717,3.91334 -8.26562,13.81943 -5.85141,6.27548 -10.89187,14.52622 -10.67984,24.90474 0,0 3.28468,-6.01136 4.34113,-5.57985 0,0 0.7663,6.89669 4.74287,10.80631 0,0 -2.41421,-6.97853 -0.91509,-13.626 0.93369,-4.15141 2.85316,-9.29975 6.54702,-13.86779 4.78379,-5.91836 7.16453,-8.61901 7.61836,-12.04875 0.90765,-6.8037 -3.64179,-13.42884 -4.59036,-18.25356 -0.0223,-0.11159 -0.10788,-0.13391 -0.1302,-0.0335 -0.85185,3.89474 0.59519,8.29538 0.67702,8.51486 -0.10043,0.0446 -0.46498,0.0298 -0.85929,-1.00438 -0.6547,-1.72975 -2.2245,-7.05665 0.66958,-11.26757 0.39803,-0.70679 1.02669,-1.32801 1.97899,-1.8488 1.62931,-0.77001 3.57854,-0.32735 5.11858,0.55055"
           style="clip-rule:evenodd;fill:#ffffff;fill-opacity:1;fill-rule:nonzero;stroke:none;image-rendering:optimizeQuality;shape-rendering:geometricPrecision;text-rendering:geometricPrecision"
           id="path11892"
           inkscape:connector-curvature="0" />
        <path
           d="m 165.50622,-132.27556 -2.83456,0.007 c 0,0 -0.60263,0.26783 -1.27221,0.53939 -0.5803,0.23435 -1.18293,0.42778 -1.18293,0.42778 l 3.0466,-0.0149 c -0.88162,0.36827 -1.70743,0.72538 -2.48489,1.0825 l -3.0466,-0.0112 c -0.67702,0.30503 -1.31685,0.60262 -1.92319,0.89649 l 3.08752,0.0112 c -0.78118,0.38687 -1.50284,0.77002 -2.16871,1.14573 l -3.17679,-0.0112 c -0.52823,0.28271 -1.02669,0.56171 -1.49168,0.82954 l 3.25491,0.0149 c -0.66586,0.41291 -1.26104,0.81838 -1.79671,1.21641 l -3.39627,-0.0186 c -0.39431,0.26411 -0.75514,0.51706 -1.08621,0.7663 l 3.49671,0.0186 c -6.00392,5.0107 -2.32122,8.49253 -0.70678,9.65686 0.12275,0.0856 0.38315,0.26039 0.39803,0.24179 0.093,-0.0893 -0.0149,-0.27899 -0.0484,-0.31991 -3.64551,-4.56804 6.53958,-6.33871 12.4319,-8.84592 -0.75886,-1.83391 0.23436,-4.65732 0.94486,-6.66607 0,0 0.11904,-0.35339 0.20459,-0.62866 0.0967,-0.34595 -0.24923,-0.33851 -0.24923,-0.33851"
           style="clip-rule:evenodd;fill:#ffffff;fill-opacity:1;fill-rule:nonzero;stroke:none;image-rendering:optimizeQuality;shape-rendering:geometricPrecision;text-rendering:geometricPrecision"
           id="path11894"
           inkscape:connector-curvature="0" />
      </g>
      <path
         inkscape:connector-curvature="0"
         id="path11896"
         d="m 501.94645,143.03039 c 4.47335,-0.74555 5.8816,-2.56805 5.8816,-2.56805 l 0,-5.4674 c -3.47926,6.37864 -9.1952,4.14197 -10.52066,3.56212 -4.05909,-1.65682 -4.39046,-7.04139 -4.39046,-7.04139 3.14788,-3.81051 6.95853,-2.81644 12.09456,-8.28386 6.29582,-6.62715 1.57397,-13.91695 -7.37272,-13.91695 -9.1952,0 -14.24842,8.53238 -14.24842,17.81044 0,8.11816 4.63904,14.49679 11.8461,15.90509 1.82245,0.3315 4.97038,0.24852 6.71,0 l 0,0 z m -56.41379,-3.89348 c -1.90534,0 -3.47927,-1.90531 -3.47927,-4.14197 0,-8.20101 6.95853,-9.52646 8.86382,-11.76313 l 0,13.99979 c -0.91122,0.99408 -1.57395,1.90531 -5.38455,1.90531 l 0,0 0,0 z m -108.3534,-0.57985 -9.85778,0 c -3.23077,0 -2.89943,-2.56806 -3.23077,-4.80473 l 0,-14.33113 4.80468,0 c 2.56805,0 6.04719,-0.24851 9.19513,1.65679 0,0 -2.23667,-6.0473 -9.19513,-6.0473 l -4.80468,0 0,-2.56793 0,-1.90529 c 0,0 0,-3.81065 -0.91127,-5.05324 l 6.62721,0 c 5.46731,0 9.85781,0 14.66251,2.81656 0,0 -0.99408,-7.2899 -12.0945,-7.2899 l -21.28966,0 c 0,0 3.8106,3.14794 3.47922,9.52658 l 0.3315,26.09425 c 0,4.39053 1.2426,5.88164 1.98811,6.37867 l 23.60915,0 c 3.23073,-0.8284 4.639,-3.56212 4.639,-5.13607 l 0,-2.56801 c 0,0 -1.65678,3.23075 -7.95261,3.23075 l 0,0 z m 187.46523,-4.47335 c 0,2.23667 -2.15382,5.38456 -6.62716,5.38456 -4.80471,0 -6.37864,-4.72185 -6.37864,-4.72185 l 0,5.96445 c 0,0 2.07098,1.73963 5.55024,2.31952 l 5.13606,0 c 4.88755,-0.99407 9.44374,-4.88756 9.69226,-9.94076 l 0,-0.91125 c 0,-2.23668 -0.66275,-4.14186 -1.90535,-6.04716 -2.23666,-2.56804 -6.04726,-4.47334 -8.94667,-6.37868 -1.57392,-0.91121 -2.4852,-2.81652 -2.4852,-3.47926 0,-1.24259 0.5799,-3.47915 5.05324,-3.47915 4.47335,0 6.37863,4.72174 6.37863,4.72174 l 0,-5.71582 c 0,0 -3.56207,-2.48519 -8.6153,-2.48519 -5.38456,0 -10.18929,3.47927 -10.18929,7.95249 0.3315,4.05916 1.90531,6.6272 5.13605,8.86387 1.2426,0.99408 2.81657,1.9053 4.72187,2.89938 2.56804,1.57384 3.47926,3.14778 3.47926,5.05311 l 0,0 z m -73.72728,-13.9998 c -2.23667,3.47927 -18.05902,4.14198 -15.57383,16.81633 0.74554,3.72777 2.89938,5.55026 5.71594,6.13015 l 4.80467,0 c 2.7337,-0.57989 4.30767,-2.31952 5.05322,-3.89348 0.66272,3.81062 2.56805,3.81062 2.56805,3.81062 l 8.86383,0 c 0,0 -3.47926,-2.23666 -3.47926,-6.62715 l 0,-18.80451 c 0,-4.39036 -5.05324,-8.20101 -10.18929,-8.20101 -5.05322,0 -8.53248,2.48519 -8.53248,2.48519 l 0,6.04719 c 0,0 1.90533,-4.72173 6.62718,-4.72173 4.47335,0 4.80469,2.23656 4.80469,3.47915 0,0 0.33148,1.24258 -0.66272,3.47925 l 0,0 z m -46.05838,-13.33709 c 2.23667,0 4.14186,-1.9053 4.14186,-4.14196 0,-2.23667 -1.90519,-4.14186 -4.14186,-4.14186 -2.23667,0 -4.142,1.90519 -4.142,4.14186 0,2.23666 1.90533,4.14196 4.142,4.14196 l 0,0 z m 94.68525,14.57969 c 1.32544,-2.81656 2.56804,-9.77497 -2.48518,-9.52646 -5.71594,0.66271 -4.80468,16.23647 -4.80468,16.23647 1.9053,-2.23667 5.05317,-2.56804 7.28986,-6.71001 l 0,0 z m -21.62116,-8.201 c 2.89943,0 5.1361,1.57384 5.1361,1.57384 l 0,-5.13596 -7.28991,0 0,-7.86975 c 0,0 -1.90529,3.47926 -6.0473,6.62715 -2.56801,2.23668 -7.95261,4.80472 -7.95261,4.80472 l 5.71594,0 0,23.52621 c 0,6.29581 2.81656,6.29581 2.81656,6.29581 l 8.94668,0 c 0,0 -3.47927,-2.15381 -3.47927,-6.29581 l 0,-23.52621 2.15381,0 0,0 z m -41.58547,-0.99408 c 0,0 -0.66274,-2.56804 -4.47334,-2.56804 -5.71594,0 -6.95853,6.70989 -6.95853,6.70989 -0.33147,-5.38443 -1.90533,-6.95842 -5.71562,-6.95842 l -5.46741,0 c 0,0 3.23073,1.24261 3.23073,6.95842 l 0,20.0471 c 0,6.62715 2.4852,6.62715 2.4852,6.62715 l 8.94637,0 c -0.33148,0 -3.47927,-2.15381 -3.47927,-6.62715 l 0,-16.56784 c 0.24852,-1.57393 1.24259,-2.48519 2.15382,-3.47926 2.89937,-1.90517 7.04138,-1.24259 9.27805,1.24259 0,0 0,-3.47914 0,-5.38444 l 0,0 z m -27.33676,24.18895 c 0,4.39049 3.47926,6.62715 3.47926,6.62715 l -8.86372,0 c 0,0 -2.8994,0.3315 -2.8994,-6.62715 l 0,-20.0471 c 0,-5.38443 -2.89938,-6.70989 -2.89938,-6.70989 l 5.46741,0 c 1.90531,0 5.71583,0 5.71583,7.37263 l 0,19.38436 0,0 z m -15.57374,0 0,-18.14177 c 0,-6.95844 -5.71585,-8.86375 -10.18919,-8.86375 -5.38444,0 -7.28974,4.72187 -7.95249,6.29571 -1.2426,-4.3904 -5.71594,-6.29571 -9.19521,-6.29571 -7.04125,0 -8.61518,6.29571 -8.61518,6.29571 0,0 -0.33149,-6.04718 -5.71594,-6.04718 l -5.38449,0 c 0,0 3.14783,1.32546 3.14783,6.70989 l 0,20.0471 c 0,4.63901 1.24259,6.21298 1.98815,6.71001 l 9.19518,0 c -0.8284,-0.74555 -3.23073,-2.89941 -3.23073,-6.71001 l 0,-17.81043 c 0.3315,-0.99408 1.57393,-3.47926 5.38457,-3.47926 2.23655,0 4.47322,2.23666 4.47322,4.72185 l 0,16.56784 c 0,6.62715 2.56804,6.62715 2.56804,6.62715 l 8.8637,0 c 0,0 -3.14776,-2.15381 -3.14776,-6.62715 l 0,-17.81043 c 0.33149,-0.99408 1.2426,-3.47926 4.72174,-3.47926 2.56803,0 4.8047,2.23666 4.8047,4.72185 l 0,16.56784 c 0,6.95853 2.89939,6.62715 2.89939,6.62715 l 8.86373,0 c 0,0 -3.47926,-2.23666 -3.47926,-6.62715 l 0,0 z"
         style="fill:#ffffff;fill-opacity:1;fill-rule:evenodd;stroke:none" />
      <path
         sodipodi:nodetypes="cscc"
         inkscape:connector-curvature="0"
         id="path11898"
         d="m 523.09732,38 c 15.53588,28.069611 25.934,54.844908 28.01935,87.08655 2.31113,35.73245 -5.588,69.26595 -28.01935,106.91345 31.86838,-69.41171 28.12486,-128.5009 0,-194 z"
         style="fill:#e04c21;fill-opacity:1;stroke:none;stroke-width:1;stroke-linecap:round;stroke-linejoin:round;stroke-miterlimit:2.61299992;stroke-dasharray:none;stroke-opacity:1" />
    </g>
  </g>
</svg>
