<?xml version="1.0" standalone="no"?>
<!DOCTYPE svg PUBLIC "-//W3C//DTD SVG 20010904//EN"
 "http://www.w3.org/TR/2001/REC-SVG-20010904/DTD/svg10.dtd">
<svg version="1.0" xmlns="http://www.w3.org/2000/svg"
 width="242.000000pt" height="184.000000pt" viewBox="0 0 242.000000 184.000000"
 preserveAspectRatio="xMidYMid meet">
<metadata>
Created by potrace 1.16, written by Peter Selinger 2001-2019
</metadata>
<g transform="translate(0.000000,184.000000) scale(0.100000,-0.100000)"
fill="#000000" stroke="none">
<path d="M320 950 l0 -290 60 0 60 0 0 135 0 135 70 0 c56 0 70 3 70 15 0 12
-14 15 -70 15 l-70 0 0 125 0 125 125 0 c104 0 125 2 125 15 0 13 -27 15 -185
15 l-185 0 0 -290z"/>
<path d="M740 1043 c0 -208 6 -249 43 -304 62 -94 231 -105 321 -21 59 56 66
86 66 315 0 200 -1 207 -20 207 -19 0 -20 -7 -20 -206 0 -169 -3 -212 -16
-240 -34 -72 -115 -108 -189 -84 -61 20 -65 39 -65 300 l0 230 -60 0 -60 0 0
-197z"/>
<path d="M1280 950 c0 -282 1 -290 20 -290 19 0 20 8 22 237 l3 237 94 -233
c124 -307 113 -308 230 3 l86 230 3 -237 2 -237 60 0 60 0 0 290 0 290 -63 0
-63 0 -79 -205 c-43 -113 -79 -205 -79 -205 -1 0 -38 92 -81 205 l-80 205 -67
0 -68 0 0 -290z"/>
<path d="M1990 950 l0 -290 55 0 55 0 0 290 0 290 -55 0 -55 0 0 -290z"/>
</g>
</svg>
