<?xml version="1.0" standalone="no"?>
<!DOCTYPE svg PUBLIC "-//W3C//DTD SVG 20010904//EN"
 "http://www.w3.org/TR/2001/REC-SVG-20010904/DTD/svg10.dtd">
<svg version="1.0" xmlns="http://www.w3.org/2000/svg"
 width="200.000000pt" height="200.000000pt" viewBox="0 0 200.000000 200.000000"
 preserveAspectRatio="xMidYMid meet">
<metadata>
Created by potrace 1.16, written by Peter Selinger 2001-2019
</metadata>
<g transform="translate(0.000000,200.000000) scale(0.100000,-0.100000)"
fill="#000000" stroke="none">
<path d="M410 1239 c0 -562 1 -621 16 -615 9 3 20 6 25 6 5 0 9 236 9 585 l0
585 535 0 535 0 1 -457 0 -458 30 -23 29 -24 0 511 0 511 -590 0 -590 0 0
-621z"/>
<path d="M669 1640 c33 -68 59 -126 57 -127 -2 -2 -37 7 -77 21 -130 43 -152
42 -64 -2 128 -64 123 -56 82 -138 -38 -75 -68 -144 -63 -144 2 0 32 43 67 96
l63 96 22 -25 c19 -23 86 -211 114 -325 11 -41 13 -43 38 -37 15 3 31 10 35
15 13 12 -67 240 -127 365 -46 93 -165 287 -197 320 -6 6 17 -46 50 -115z"/>
<path d="M1093 1663 c-52 -116 -110 -352 -129 -520 -7 -69 1 -78 44 -47 20 14
22 23 22 112 0 53 4 114 9 135 13 54 77 127 141 160 45 23 49 27 26 27 -36 0
-85 -22 -118 -53 -16 -14 -28 -21 -28 -14 0 7 15 68 34 137 19 69 33 126 32
128 -2 1 -17 -28 -33 -65z"/>
<path d="M635 1094 c-22 -8 -44 -19 -49 -24 -13 -13 57 -78 109 -101 52 -24
193 -27 201 -4 10 25 -36 85 -90 115 -57 33 -107 37 -171 14z"/>
<path d="M995 1074 c-22 -13 -55 -27 -72 -30 -18 -3 -33 -7 -33 -9 0 -1 7 -19
15 -38 8 -20 15 -41 15 -46 0 -6 -23 -11 -52 -13 l-52 -3 -41 -78 c-22 -43
-57 -95 -79 -117 -46 -47 -154 -104 -231 -121 l-55 -12 0 -229 0 -228 116 0
117 0 238 240 c133 134 248 242 261 244 113 24 183 33 244 29 62 -4 73 -3 85
14 8 10 29 25 47 32 37 16 72 55 72 82 0 10 -14 34 -31 53 -23 27 -48 41 -102
57 -82 24 -145 64 -200 125 -65 74 -183 95 -262 48z"/>
<path d="M1553 713 c-23 -15 -23 -18 -23 -259 l0 -244 -403 0 -403 0 -29 -30
-29 -30 462 0 462 0 0 290 c0 160 -3 290 -7 289 -5 0 -18 -7 -30 -16z"/>
</g>
</svg>
