<svg width="50.112px" height="50.112px" viewBox="-3.84 0 50.112 50.112" xmlns="http://www.w3.org/2000/svg">
  <g id="Group_1644" data-name="Group 1644" transform="translate(3567.083 -2328.144)">
    <path id="Path_3579" data-name="Path 3579" d="M-3538.475,2348.6c0,8.841-6.188,16.007-13.824,16.007s-13.824-7.166-13.824-16.007,6.19-16.007,13.824-16.007,13.824,7.167,13.824,16.007" fill="#fff" fill-rule="evenodd"/>
    <path id="Path_3580" data-name="Path 3580" d="M-3535.4,2351.669c0,8.841-6.188,16.007-13.824,16.007s-13.824-7.166-13.824-16.007,6.189-16.006,13.824-16.006,13.824,7.166,13.824,16.006" fill="#5db67d" fill-rule="evenodd"/>
    <path id="Path_3581" data-name="Path 3581" d="M-3552.3,2333.55c-7.093,0-12.864,6.75-12.864,15.047s5.771,15.047,12.864,15.047,12.864-6.75,12.864-15.047S-3545.205,2333.55-3552.3,2333.55Zm0,32.014c-8.151,0-14.784-7.611-14.784-16.967s6.633-16.967,14.784-16.967,14.784,7.612,14.784,16.967-6.632,16.967-14.784,16.967" fill="#6f0911" fill-rule="evenodd"/>
    <path id="Path_3582" data-name="Path 3582" d="M-3552.3,2333.55a.955.955,0,0,1-.291-.045.962.962,0,0,1-.624-1.206,5.708,5.708,0,0,1,2.766-3.676c2.025-.963,4.347-.056,6.213.675.78.3,2.086.817,2.386.662h0s.14-.168.14-.856a.96.96,0,0,1,.96-.96.96.96,0,0,1,.96.96,2.892,2.892,0,0,1-.98,2.443c-1.09.743-2.515.185-4.165-.461-1.6-.625-3.415-1.333-4.687-.73a3.927,3.927,0,0,0-1.762,2.525.962.962,0,0,1-.916.669" fill="#6f0911" fill-rule="evenodd"/>
    <path id="Path_3583" data-name="Path 3583" d="M-3546.842,2349.557a.96.96,0,0,1-.96-.96c0-9.322-2.618-15.047-4.5-15.047a.96.96,0,0,1-.96-.96.96.96,0,0,1,.96-.96c4.168,0,6.417,8.742,6.417,16.967a.96.96,0,0,1-.96.96" fill="#6f0911" fill-rule="evenodd"/>
    <path id="Path_3584" data-name="Path 3584" d="M-3556.738,2340.25a.983.983,0,0,1-.228-.027.96.96,0,0,1-.7-1.161c.157-.647.333-1.269.522-1.846a.961.961,0,0,1,1.211-.614.96.96,0,0,1,.614,1.211c-.174.532-.336,1.1-.482,1.7a.961.961,0,0,1-.932.733" fill="#6f0911" fill-rule="evenodd"/>
    <path id="Path_3585" data-name="Path 3585" d="M-3556.145,2360.909a.961.961,0,0,1-.909-.649,37.327,37.327,0,0,1-1.662-11.663,45.778,45.778,0,0,1,.285-5.164.963.963,0,0,1,1.062-.845.959.959,0,0,1,.845,1.062,44.06,44.06,0,0,0-.272,4.947,35.412,35.412,0,0,0,1.559,11.041.961.961,0,0,1-.6,1.22.951.951,0,0,1-.31.051" fill="#6f0911" fill-rule="evenodd"/>
    <path id="Path_3586" data-name="Path 3586" d="M-3534.311,2336.784a22.492,22.492,0,0,1,0,31.811,22.494,22.494,0,0,1-31.812,0l31.812-31.811" fill="#fff" fill-rule="evenodd"/>
    <path id="Path_3587" data-name="Path 3587" d="M-3531.239,2339.856a22.493,22.493,0,0,1,0,31.811,22.494,22.494,0,0,1-31.812,0l31.812-31.811" fill="#5db67d" fill-rule="evenodd"/>
    <path id="Path_3588" data-name="Path 3588" d="M-3564.75,2368.58a21.379,21.379,0,0,0,14.533,5.644,21.394,21.394,0,0,0,15.227-6.307,21.561,21.561,0,0,0,.665-29.76Zm14.533,7.552a23.382,23.382,0,0,1-16.584-6.858.962.962,0,0,1-.282-.679.959.959,0,0,1,.282-.678l31.811-31.811a.959.959,0,0,1,.68-.282h0a.954.954,0,0,1,.678.282,23.479,23.479,0,0,1,0,33.168,23.384,23.384,0,0,1-16.585,6.858" fill="#6f0911" fill-rule="evenodd"/>
    <path id="Path_3589" data-name="Path 3589" d="M-3538.337,2340.811a16.8,16.8,0,0,1,0,23.759,16.8,16.8,0,0,1-23.759,0l23.759-23.759" fill="#fff" fill-rule="evenodd"/>
    <path id="Path_3590" data-name="Path 3590" d="M-3535.265,2343.882a16.8,16.8,0,0,1,0,23.759,16.8,16.8,0,0,1-23.759,0l23.759-23.759" fill="#f22a5c" fill-rule="evenodd"/>
    <path id="Path_3591" data-name="Path 3591" d="M-3560.718,2364.549a15.72,15.72,0,0,0,10.5,3.981,15.731,15.731,0,0,0,11.2-4.64,15.861,15.861,0,0,0,.66-21.7Zm10.5,5.9a17.636,17.636,0,0,1-12.557-5.2.959.959,0,0,1,0-1.358l23.757-23.759a.991.991,0,0,1,1.358,0,17.78,17.78,0,0,1,0,25.117,17.64,17.64,0,0,1-12.558,5.2" fill="#6f0911" fill-rule="evenodd"/>
    <path id="Path_3592" data-name="Path 3592" d="M-3544.208,2359.659a.953.953,0,0,1-.677-.281l-.425-.424a.959.959,0,0,1,0-1.357.958.958,0,0,1,1.358,0l.424.424a.958.958,0,0,1,0,1.357.95.95,0,0,1-.679.283" fill="#6f0911" fill-rule="evenodd"/>
    <path id="Path_3593" data-name="Path 3593" d="M-3541.719,2353.65h-.6a.96.96,0,0,1-.96-.96.96.96,0,0,1,.96-.96h.6a.96.96,0,0,1,.96.96.96.96,0,0,1-.96.96" fill="#6f0911" fill-rule="evenodd"/>
    <path id="Path_3594" data-name="Path 3594" d="M-3550.217,2362.147a.96.96,0,0,1-.96-.96v-.6a.96.96,0,0,1,.96-.96.96.96,0,0,1,.96.96v.6a.96.96,0,0,1-.96.96" fill="#6f0911" fill-rule="evenodd"/>
  </g>
</svg>
